<?xml version="1.0" encoding="utf-8" standalone="no"?>
<!DOCTYPE svg PUBLIC "-//W3C//DTD SVG 1.1//EN"
  "http://www.w3.org/Graphics/SVG/1.1/DTD/svg11.dtd">
<svg xmlns:xlink="http://www.w3.org/1999/xlink" width="843.71125pt" height="411.88773pt" viewBox="0 0 843.71125 411.88773" xmlns="http://www.w3.org/2000/svg" version="1.1">
 <metadata>
  <rdf:RDF xmlns:dc="http://purl.org/dc/elements/1.1/" xmlns:cc="http://creativecommons.org/ns#" xmlns:rdf="http://www.w3.org/1999/02/22-rdf-syntax-ns#">
   <cc:Work>
    <dc:type rdf:resource="http://purl.org/dc/dcmitype/StillImage"/>
    <dc:date>2026-03-07T11:56:40.446216</dc:date>
    <dc:format>image/svg+xml</dc:format>
    <dc:creator>
     <cc:Agent>
      <dc:title>Matplotlib v3.10.7, https://matplotlib.org/</dc:title>
     </cc:Agent>
    </dc:creator>
   </cc:Work>
  </rdf:RDF>
 </metadata>
 <defs>
  <style type="text/css">*{stroke-linejoin: round; stroke-linecap: butt}</style>
 </defs>
 <g id="figure_1">
  <g id="patch_1">
   <path d="M 0 411.88773 
L 843.71125 411.88773 
L 843.71125 0 
L 0 0 
z
" style="fill: #ffffff"/>
  </g>
  <g id="axes_1">
   <g id="patch_2">
    <path d="M 74.23125 265.269611 
L 836.51125 265.269611 
L 836.51125 7.2 
L 74.23125 7.2 
z
" style="fill: #ffffff"/>
   </g>
   <g id="patch_3">
    <path d="M 108.880341 265.269611 
L 155.862159 265.269611 
L 155.862159 207.152334 
L 108.880341 207.152334 
z
" clip-path="url(#p527ad2242a)" style="fill: #00a89e"/>
   </g>
   <g id="patch_4">
    <path d="M 167.607614 265.269611 
L 214.589432 265.269611 
L 214.589432 261.553408 
L 167.607614 261.553408 
z
" clip-path="url(#p527ad2242a)" style="fill: #00a89e"/>
   </g>
   <g id="patch_5">
    <path d="M 226.334886 265.269611 
L 273.316705 265.269611 
L 273.316705 231.514106 
L 226.334886 231.514106 
z
" clip-path="url(#p527ad2242a)" style="fill: #00a89e"/>
   </g>
   <g id="patch_6">
    <path d="M 285.062159 265.269611 
L 332.043977 265.269611 
L 332.043977 250.508029 
L 285.062159 250.508029 
z
" clip-path="url(#p527ad2242a)" style="fill: #00a89e"/>
   </g>
   <g id="patch_7">
    <path d="M 343.789432 265.269611 
L 390.77125 265.269611 
L 390.77125 232.546384 
L 343.789432 232.546384 
z
" clip-path="url(#p527ad2242a)" style="fill: #00a89e"/>
   </g>
   <g id="patch_8">
    <path d="M 402.516705 265.269611 
L 449.498523 265.269611 
L 449.498523 28.981075 
L 402.516705 28.981075 
z
" clip-path="url(#p527ad2242a)" style="fill: #00a89e"/>
   </g>
   <g id="patch_9">
    <path d="M 461.243977 265.269611 
L 508.225795 265.269611 
L 508.225795 204.881322 
L 461.243977 204.881322 
z
" clip-path="url(#p527ad2242a)" style="fill: #00a89e"/>
   </g>
   <g id="patch_10">
    <path d="M 519.97125 265.269611 
L 566.953068 265.269611 
L 566.953068 209.320119 
L 519.97125 209.320119 
z
" clip-path="url(#p527ad2242a)" style="fill: #00a89e"/>
   </g>
   <g id="patch_11">
    <path d="M 578.698523 265.269611 
L 625.680341 265.269611 
L 625.680341 256.082332 
L 578.698523 256.082332 
z
" clip-path="url(#p527ad2242a)" style="fill: #00a89e"/>
   </g>
   <g id="patch_12">
    <path d="M 637.425795 265.269611 
L 684.407614 265.269611 
L 684.407614 244.520814 
L 637.425795 244.520814 
z
" clip-path="url(#p527ad2242a)" style="fill: #00a89e"/>
   </g>
   <g id="patch_13">
    <path d="M 696.153068 265.269611 
L 743.134886 265.269611 
L 743.134886 259.798535 
L 696.153068 259.798535 
z
" clip-path="url(#p527ad2242a)" style="fill: #00a89e"/>
   </g>
   <g id="patch_14">
    <path d="M 754.880341 265.269611 
L 801.862159 265.269611 
L 801.862159 224.288156 
L 754.880341 224.288156 
z
" clip-path="url(#p527ad2242a)" style="fill: #00a89e"/>
   </g>
   <g id="matplotlib.axis_1">
    <g id="xtick_1">
     <g id="line2d_1">
      <defs>
       <path id="m0dddc24e28" d="M 0 0 
L 0 3.5 
" style="stroke: #000000; stroke-width: 0.8"/>
      </defs>
      <g>
       <use xlink:href="#m0dddc24e28" x="132.37125" y="265.269611" style="stroke: #000000; stroke-width: 0.8"/>
      </g>
     </g>
     <g id="text_1">
      <!-- Bent -->
      <g transform="translate(99.417864 310.624408) rotate(-45) scale(0.18 -0.18)">
       <defs>
        <path id="CourierNewPSMT-42" d="M 800 263 
L 800 3394 
L 447 3394 
Q 353 3394 312 3430 
Q 272 3466 272 3525 
Q 272 3584 312 3620 
Q 353 3656 447 3656 
L 2097 3656 
Q 2588 3656 2895 3373 
Q 3203 3091 3203 2709 
Q 3203 2228 2688 1931 
Q 3097 1784 3287 1540 
Q 3478 1297 3478 1003 
Q 3478 741 3353 523 
Q 3228 306 2970 153 
Q 2713 0 2409 0 
L 447 0 
Q 353 0 312 37 
Q 272 75 272 131 
Q 272 191 312 227 
Q 353 263 447 263 
L 800 263 
z
M 1063 2031 
L 1991 2031 
Q 2288 2031 2534 2141 
Q 2725 2228 2831 2393 
Q 2938 2559 2938 2731 
Q 2938 2978 2706 3186 
Q 2475 3394 2103 3394 
L 1063 3394 
L 1063 2031 
z
M 1063 263 
L 2391 263 
Q 2644 263 2831 375 
Q 3019 488 3116 653 
Q 3213 819 3213 997 
Q 3213 1197 3073 1384 
Q 2934 1572 2687 1669 
Q 2441 1766 2006 1766 
L 1063 1766 
L 1063 263 
z
" transform="scale(0.015625)"/>
        <path id="CourierNewPSMT-65" d="M 3341 1291 
L 666 1291 
Q 734 781 1092 470 
Q 1450 159 1978 159 
Q 2272 159 2594 256 
Q 2916 353 3119 513 
Q 3178 559 3222 559 
Q 3272 559 3309 520 
Q 3347 481 3347 428 
Q 3347 375 3297 325 
Q 3147 169 2764 33 
Q 2381 -103 1978 -103 
Q 1303 -103 851 339 
Q 400 781 400 1409 
Q 400 1981 823 2390 
Q 1247 2800 1872 2800 
Q 2516 2800 2931 2379 
Q 3347 1959 3341 1291 
z
M 3075 1556 
Q 2997 1991 2664 2262 
Q 2331 2534 1872 2534 
Q 1413 2534 1081 2265 
Q 750 1997 669 1556 
L 3075 1556 
z
" transform="scale(0.015625)"/>
        <path id="CourierNewPSMT-6e" d="M 1072 2706 
L 1072 2309 
Q 1347 2588 1569 2694 
Q 1791 2800 2069 2800 
Q 2369 2800 2616 2672 
Q 2791 2578 2933 2361 
Q 3075 2144 3075 1916 
L 3075 263 
L 3297 263 
Q 3391 263 3431 227 
Q 3472 191 3472 131 
Q 3472 75 3431 37 
Q 3391 0 3297 0 
L 2594 0 
Q 2497 0 2456 37 
Q 2416 75 2416 131 
Q 2416 191 2456 227 
Q 2497 263 2594 263 
L 2813 263 
L 2813 1872 
Q 2813 2150 2609 2342 
Q 2406 2534 2066 2534 
Q 1806 2534 1615 2429 
Q 1425 2325 1072 1909 
L 1072 263 
L 1369 263 
Q 1463 263 1503 227 
Q 1544 191 1544 131 
Q 1544 75 1503 37 
Q 1463 0 1369 0 
L 513 0 
Q 419 0 378 37 
Q 338 75 338 131 
Q 338 191 378 227 
Q 419 263 513 263 
L 809 263 
L 809 2441 
L 588 2441 
Q 494 2441 453 2478 
Q 413 2516 413 2575 
Q 413 2631 453 2668 
Q 494 2706 588 2706 
L 1072 2706 
z
" transform="scale(0.015625)"/>
        <path id="CourierNewPSMT-74" d="M 1381 2706 
L 2806 2706 
Q 2900 2706 2940 2668 
Q 2981 2631 2981 2572 
Q 2981 2516 2940 2478 
Q 2900 2441 2806 2441 
L 1381 2441 
L 1381 694 
Q 1381 466 1564 312 
Q 1747 159 2100 159 
Q 2366 159 2675 239 
Q 2984 319 3156 419 
Q 3219 459 3259 459 
Q 3309 459 3346 420 
Q 3384 381 3384 328 
Q 3384 281 3344 241 
Q 3244 138 2858 17 
Q 2472 -103 2119 -103 
Q 1659 -103 1387 112 
Q 1116 328 1116 694 
L 1116 2441 
L 631 2441 
Q 538 2441 497 2478 
Q 456 2516 456 2575 
Q 456 2631 497 2668 
Q 538 2706 631 2706 
L 1116 2706 
L 1116 3481 
Q 1116 3575 1153 3615 
Q 1191 3656 1247 3656 
Q 1306 3656 1343 3615 
Q 1381 3575 1381 3481 
L 1381 2706 
z
" transform="scale(0.015625)"/>
       </defs>
       <use xlink:href="#CourierNewPSMT-42"/>
       <use xlink:href="#CourierNewPSMT-65" transform="translate(60.009766 0)"/>
       <use xlink:href="#CourierNewPSMT-6e" transform="translate(120.019531 0)"/>
       <use xlink:href="#CourierNewPSMT-74" transform="translate(180.029297 0)"/>
      </g>
     </g>
    </g>
    <g id="xtick_2">
     <g id="line2d_2">
      <g>
       <use xlink:href="#m0dddc24e28" x="191.098523" y="265.269611" style="stroke: #000000; stroke-width: 0.8"/>
      </g>
     </g>
     <g id="text_2">
      <!-- Blackstained -->
      <g transform="translate(97.035201 371.734344) rotate(-45) scale(0.18 -0.18)">
       <defs>
        <path id="CourierNewPSMT-6c" d="M 2053 3922 
L 2053 263 
L 3084 263 
Q 3181 263 3222 227 
Q 3263 191 3263 131 
Q 3263 75 3222 37 
Q 3181 0 3084 0 
L 759 0 
Q 666 0 625 37 
Q 584 75 584 131 
Q 584 191 625 227 
Q 666 263 759 263 
L 1791 263 
L 1791 3656 
L 1034 3656 
Q 941 3656 898 3693 
Q 856 3731 856 3791 
Q 856 3847 897 3884 
Q 938 3922 1034 3922 
L 2053 3922 
z
" transform="scale(0.015625)"/>
        <path id="CourierNewPSMT-61" d="M 2675 0 
L 2675 378 
Q 2103 -103 1453 -103 
Q 981 -103 715 136 
Q 450 375 450 722 
Q 450 1103 800 1387 
Q 1150 1672 1822 1672 
Q 2003 1672 2215 1648 
Q 2428 1625 2675 1575 
L 2675 2000 
Q 2675 2216 2475 2375 
Q 2275 2534 1875 2534 
Q 1569 2534 1016 2356 
Q 916 2325 888 2325 
Q 838 2325 802 2362 
Q 766 2400 766 2456 
Q 766 2509 797 2541 
Q 841 2588 1150 2669 
Q 1638 2800 1888 2800 
Q 2384 2800 2662 2554 
Q 2941 2309 2941 2000 
L 2941 263 
L 3291 263 
Q 3388 263 3428 227 
Q 3469 191 3469 131 
Q 3469 75 3428 37 
Q 3388 0 3291 0 
L 2675 0 
z
M 2675 1306 
Q 2491 1359 2284 1384 
Q 2078 1409 1850 1409 
Q 1278 1409 956 1163 
Q 713 978 713 722 
Q 713 484 898 321 
Q 1084 159 1441 159 
Q 1781 159 2073 295 
Q 2366 431 2675 728 
L 2675 1306 
z
" transform="scale(0.015625)"/>
        <path id="CourierNewPSMT-63" d="M 3016 2441 
L 3016 2528 
Q 3016 2625 3053 2665 
Q 3091 2706 3147 2706 
Q 3206 2706 3243 2665 
Q 3281 2625 3281 2528 
L 3281 1934 
Q 3278 1838 3242 1797 
Q 3206 1756 3147 1756 
Q 3094 1756 3058 1792 
Q 3022 1828 3016 1913 
Q 2997 2134 2723 2334 
Q 2450 2534 1988 2534 
Q 1403 2534 1100 2168 
Q 797 1803 797 1331 
Q 797 822 1131 490 
Q 1466 159 1997 159 
Q 2303 159 2620 271 
Q 2938 384 3194 634 
Q 3259 697 3309 697 
Q 3363 697 3398 661 
Q 3434 625 3434 572 
Q 3434 438 3119 231 
Q 2609 -103 1984 -103 
Q 1350 -103 942 301 
Q 534 706 534 1328 
Q 534 1963 951 2381 
Q 1369 2800 2003 2800 
Q 2606 2800 3016 2441 
z
" transform="scale(0.015625)"/>
        <path id="CourierNewPSMT-6b" d="M 1388 1169 
L 1388 0 
L 772 0 
Q 678 0 637 37 
Q 597 75 597 131 
Q 597 191 637 227 
Q 678 263 772 263 
L 1125 263 
L 1125 3656 
L 772 3656 
Q 678 3656 637 3693 
Q 597 3731 597 3791 
Q 597 3847 637 3884 
Q 678 3922 772 3922 
L 1388 3922 
L 1388 1503 
L 2503 2441 
L 2369 2441 
Q 2275 2441 2234 2478 
Q 2194 2516 2194 2572 
Q 2194 2631 2234 2668 
Q 2275 2706 2369 2706 
L 3209 2706 
Q 3306 2706 3347 2668 
Q 3388 2631 3388 2572 
Q 3388 2516 3347 2478 
Q 3306 2441 3209 2441 
L 2906 2441 
L 1881 1584 
L 3178 263 
L 3481 263 
Q 3578 263 3618 227 
Q 3659 191 3659 131 
Q 3659 75 3618 37 
Q 3578 0 3481 0 
L 2631 0 
Q 2538 0 2497 37 
Q 2456 75 2456 131 
Q 2456 191 2497 227 
Q 2538 263 2631 263 
L 2816 263 
L 1688 1422 
L 1388 1169 
z
" transform="scale(0.015625)"/>
        <path id="CourierNewPSMT-73" d="M 2788 2534 
Q 2788 2625 2825 2665 
Q 2863 2706 2919 2706 
Q 2978 2706 3015 2665 
Q 3053 2625 3053 2528 
L 3053 2078 
Q 3053 1984 3015 1943 
Q 2978 1903 2919 1903 
Q 2866 1903 2830 1937 
Q 2794 1972 2788 2050 
Q 2769 2238 2594 2359 
Q 2338 2534 1916 2534 
Q 1475 2534 1231 2356 
Q 1047 2222 1047 2056 
Q 1047 1869 1266 1744 
Q 1416 1656 1834 1609 
Q 2381 1550 2594 1475 
Q 2897 1366 3045 1172 
Q 3194 978 3194 753 
Q 3194 419 2872 158 
Q 2550 -103 1928 -103 
Q 1306 -103 909 213 
Q 909 106 896 75 
Q 884 44 851 22 
Q 819 0 778 0 
Q 722 0 684 40 
Q 647 81 647 175 
L 647 716 
Q 647 809 683 850 
Q 719 891 778 891 
Q 834 891 873 852 
Q 913 813 913 747 
Q 913 603 984 506 
Q 1094 356 1333 257 
Q 1572 159 1919 159 
Q 2431 159 2681 350 
Q 2931 541 2931 753 
Q 2931 997 2678 1144 
Q 2422 1291 1933 1341 
Q 1444 1391 1231 1472 
Q 1019 1553 900 1715 
Q 781 1878 781 2066 
Q 781 2403 1112 2601 
Q 1444 2800 1903 2800 
Q 2447 2800 2788 2534 
z
" transform="scale(0.015625)"/>
        <path id="CourierNewPSMT-69" d="M 2050 4053 
L 2050 3375 
L 1663 3375 
L 1663 4053 
L 2050 4053 
z
M 2059 2706 
L 2059 263 
L 3091 263 
Q 3188 263 3228 227 
Q 3269 191 3269 131 
Q 3269 75 3228 37 
Q 3188 0 3091 0 
L 766 0 
Q 672 0 631 37 
Q 591 75 591 131 
Q 591 191 631 227 
Q 672 263 766 263 
L 1797 263 
L 1797 2441 
L 1031 2441 
Q 938 2441 895 2478 
Q 853 2516 853 2572 
Q 853 2631 893 2668 
Q 934 2706 1031 2706 
L 2059 2706 
z
" transform="scale(0.015625)"/>
        <path id="CourierNewPSMT-64" d="M 3206 3922 
L 3206 263 
L 3556 263 
Q 3653 263 3693 227 
Q 3734 191 3734 131 
Q 3734 75 3693 37 
Q 3653 0 3556 0 
L 2941 0 
L 2941 522 
Q 2484 -103 1781 -103 
Q 1425 -103 1098 86 
Q 772 275 583 625 
Q 394 975 394 1347 
Q 394 1722 583 2070 
Q 772 2419 1098 2609 
Q 1425 2800 1784 2800 
Q 2472 2800 2941 2175 
L 2941 3656 
L 2591 3656 
Q 2494 3656 2453 3693 
Q 2413 3731 2413 3791 
Q 2413 3847 2453 3884 
Q 2494 3922 2591 3922 
L 3206 3922 
z
M 2941 1347 
Q 2941 1847 2603 2190 
Q 2266 2534 1800 2534 
Q 1331 2534 993 2190 
Q 656 1847 656 1347 
Q 656 850 993 504 
Q 1331 159 1800 159 
Q 2266 159 2603 504 
Q 2941 850 2941 1347 
z
" transform="scale(0.015625)"/>
       </defs>
       <use xlink:href="#CourierNewPSMT-42"/>
       <use xlink:href="#CourierNewPSMT-6c" transform="translate(60.009766 0)"/>
       <use xlink:href="#CourierNewPSMT-61" transform="translate(120.019531 0)"/>
       <use xlink:href="#CourierNewPSMT-63" transform="translate(180.029297 0)"/>
       <use xlink:href="#CourierNewPSMT-6b" transform="translate(240.039062 0)"/>
       <use xlink:href="#CourierNewPSMT-73" transform="translate(300.048828 0)"/>
       <use xlink:href="#CourierNewPSMT-74" transform="translate(360.058594 0)"/>
       <use xlink:href="#CourierNewPSMT-61" transform="translate(420.068359 0)"/>
       <use xlink:href="#CourierNewPSMT-69" transform="translate(480.078125 0)"/>
       <use xlink:href="#CourierNewPSMT-6e" transform="translate(540.087891 0)"/>
       <use xlink:href="#CourierNewPSMT-65" transform="translate(600.097656 0)"/>
       <use xlink:href="#CourierNewPSMT-64" transform="translate(660.107422 0)"/>
      </g>
     </g>
    </g>
    <g id="xtick_3">
     <g id="line2d_3">
      <g>
       <use xlink:href="#m0dddc24e28" x="249.825795" y="265.269611" style="stroke: #000000; stroke-width: 0.8"/>
      </g>
     </g>
     <g id="text_3">
      <!-- Cracked -->
      <g transform="translate(193.956184 333.540634) rotate(-45) scale(0.18 -0.18)">
       <defs>
        <path id="CourierNewPSMT-43" d="M 3075 3297 
L 3075 3481 
Q 3075 3575 3111 3615 
Q 3147 3656 3206 3656 
Q 3266 3656 3302 3615 
Q 3338 3575 3338 3481 
L 3338 2753 
Q 3338 2656 3302 2615 
Q 3266 2575 3206 2575 
Q 3153 2575 3117 2612 
Q 3081 2650 3075 2734 
Q 3059 2997 2791 3200 
Q 2428 3478 1966 3478 
Q 1663 3478 1394 3344 
Q 1194 3247 1075 3106 
Q 869 2863 747 2566 
Q 659 2347 659 2072 
L 659 1613 
Q 659 1025 1084 592 
Q 1509 159 2072 159 
Q 2409 159 2676 306 
Q 2944 453 3194 750 
Q 3247 816 3313 816 
Q 3369 816 3403 781 
Q 3438 747 3438 694 
Q 3438 622 3303 475 
Q 3047 188 2726 42 
Q 2406 -103 2078 -103 
Q 1794 -103 1500 6 
Q 1275 91 1128 203 
Q 981 316 767 583 
Q 553 850 475 1076 
Q 397 1303 397 1575 
L 397 2109 
Q 397 2497 605 2901 
Q 813 3306 1173 3523 
Q 1534 3741 1956 3741 
Q 2606 3741 3075 3297 
z
" transform="scale(0.015625)"/>
        <path id="CourierNewPSMT-72" d="M 1606 2706 
L 1606 2044 
Q 2119 2506 2373 2639 
Q 2628 2772 2844 2772 
Q 3078 2772 3279 2614 
Q 3481 2456 3481 2375 
Q 3481 2316 3442 2277 
Q 3403 2238 3344 2238 
Q 3313 2238 3291 2248 
Q 3269 2259 3209 2319 
Q 3100 2428 3019 2468 
Q 2938 2509 2859 2509 
Q 2688 2509 2445 2371 
Q 2203 2234 1606 1700 
L 1606 263 
L 2769 263 
Q 2866 263 2906 227 
Q 2947 191 2947 131 
Q 2947 75 2906 37 
Q 2866 0 2769 0 
L 709 0 
Q 616 0 575 36 
Q 534 72 534 128 
Q 534 181 573 217 
Q 613 253 709 253 
L 1344 253 
L 1344 2441 
L 859 2441 
Q 766 2441 725 2478 
Q 684 2516 684 2575 
Q 684 2631 723 2668 
Q 763 2706 859 2706 
L 1606 2706 
z
" transform="scale(0.015625)"/>
       </defs>
       <use xlink:href="#CourierNewPSMT-43"/>
       <use xlink:href="#CourierNewPSMT-72" transform="translate(60.009766 0)"/>
       <use xlink:href="#CourierNewPSMT-61" transform="translate(120.019531 0)"/>
       <use xlink:href="#CourierNewPSMT-63" transform="translate(180.029297 0)"/>
       <use xlink:href="#CourierNewPSMT-6b" transform="translate(240.039062 0)"/>
       <use xlink:href="#CourierNewPSMT-65" transform="translate(300.048828 0)"/>
       <use xlink:href="#CourierNewPSMT-64" transform="translate(360.058594 0)"/>
      </g>
     </g>
    </g>
    <g id="xtick_4">
     <g id="line2d_4">
      <g>
       <use xlink:href="#m0dddc24e28" x="308.553068" y="265.269611" style="stroke: #000000; stroke-width: 0.8"/>
      </g>
     </g>
     <g id="text_4">
      <!-- GapDemo -->
      <g transform="translate(252.683457 333.540634) rotate(-45) scale(0.18 -0.18)">
       <defs>
        <path id="CourierNewPSMT-47" d="M 3347 1356 
L 3347 231 
Q 3047 66 2748 -18 
Q 2450 -103 2153 -103 
Q 1731 -103 1411 22 
Q 1091 147 869 372 
Q 647 597 523 875 
Q 400 1153 400 1581 
L 400 2063 
Q 400 2494 614 2901 
Q 828 3309 1200 3525 
Q 1572 3741 2009 3741 
Q 2644 3741 3081 3394 
Q 3081 3547 3092 3578 
Q 3103 3609 3137 3632 
Q 3172 3656 3216 3656 
Q 3272 3656 3309 3615 
Q 3347 3575 3347 3481 
L 3347 2888 
Q 3347 2791 3309 2752 
Q 3272 2713 3216 2713 
Q 3163 2713 3127 2748 
Q 3091 2784 3088 2875 
Q 3069 3141 2742 3309 
Q 2416 3478 2031 3478 
Q 1669 3478 1376 3320 
Q 1084 3163 831 2719 
Q 663 2428 663 2059 
L 663 1581 
Q 663 928 1063 543 
Q 1463 159 2166 159 
Q 2403 159 2606 209 
Q 2809 259 3081 384 
L 3081 1356 
L 2178 1356 
Q 2084 1356 2043 1392 
Q 2003 1428 2003 1488 
Q 2003 1547 2043 1584 
Q 2084 1622 2178 1622 
L 3441 1619 
Q 3534 1619 3575 1583 
Q 3616 1547 3616 1488 
Q 3616 1447 3591 1412 
Q 3566 1378 3534 1367 
Q 3503 1356 3347 1356 
z
" transform="scale(0.015625)"/>
        <path id="CourierNewPSMT-70" d="M 931 2706 
L 931 2228 
Q 1166 2513 1434 2656 
Q 1703 2800 2069 2800 
Q 2456 2800 2784 2619 
Q 3113 2438 3292 2114 
Q 3472 1791 3472 1434 
Q 3472 869 3067 467 
Q 2663 66 2072 66 
Q 1369 66 931 638 
L 931 -944 
L 1569 -944 
Q 1663 -944 1703 -980 
Q 1744 -1016 1744 -1075 
Q 1744 -1131 1703 -1168 
Q 1663 -1206 1569 -1206 
L 316 -1206 
Q 222 -1206 181 -1170 
Q 141 -1134 141 -1075 
Q 141 -1016 181 -980 
Q 222 -944 316 -944 
L 669 -944 
L 669 2441 
L 316 2441 
Q 222 2441 181 2478 
Q 141 2516 141 2575 
Q 141 2631 181 2668 
Q 222 2706 316 2706 
L 931 2706 
z
M 3206 1434 
Q 3206 1888 2876 2211 
Q 2547 2534 2072 2534 
Q 1594 2534 1262 2209 
Q 931 1884 931 1434 
Q 931 981 1262 656 
Q 1594 331 2072 331 
Q 2544 331 2875 654 
Q 3206 978 3206 1434 
z
" transform="scale(0.015625)"/>
        <path id="CourierNewPSMT-44" d="M 891 263 
L 891 3394 
L 669 3394 
Q 575 3394 534 3430 
Q 494 3466 494 3525 
Q 494 3584 534 3620 
Q 575 3656 669 3656 
L 2081 3656 
Q 2413 3656 2686 3518 
Q 2959 3381 3103 3206 
Q 3350 2909 3478 2578 
Q 3569 2338 3569 2009 
L 3569 1647 
Q 3569 1244 3391 866 
Q 3213 488 2797 206 
Q 2488 0 2081 0 
L 669 0 
Q 575 0 534 37 
Q 494 75 494 131 
Q 494 191 534 227 
Q 575 263 669 263 
L 891 263 
z
M 1153 263 
L 2106 263 
Q 2438 263 2727 478 
Q 3016 694 3161 995 
Q 3306 1297 3306 1591 
L 3306 2066 
Q 3306 2309 3228 2500 
Q 3116 2778 2909 3028 
Q 2797 3166 2578 3280 
Q 2359 3394 2106 3394 
L 1153 3394 
L 1153 263 
z
" transform="scale(0.015625)"/>
        <path id="CourierNewPSMT-6d" d="M 725 2706 
L 725 2441 
Q 1059 2800 1397 2800 
Q 1600 2800 1753 2692 
Q 1906 2584 2009 2366 
Q 2184 2584 2364 2692 
Q 2544 2800 2725 2800 
Q 3009 2800 3178 2616 
Q 3400 2378 3400 2097 
L 3400 263 
L 3622 263 
Q 3716 263 3756 227 
Q 3797 191 3797 131 
Q 3797 75 3756 37 
Q 3716 0 3622 0 
L 3138 0 
L 3138 2072 
Q 3138 2272 3016 2403 
Q 2894 2534 2734 2534 
Q 2591 2534 2431 2426 
Q 2272 2319 2069 2003 
L 2069 263 
L 2288 263 
Q 2381 263 2422 227 
Q 2463 191 2463 131 
Q 2463 75 2422 37 
Q 2381 0 2288 0 
L 1803 0 
L 1803 2053 
Q 1803 2263 1679 2398 
Q 1556 2534 1403 2534 
Q 1263 2534 1125 2444 
Q 934 2316 725 2003 
L 725 263 
L 947 263 
Q 1041 263 1081 227 
Q 1122 191 1122 131 
Q 1122 75 1081 37 
Q 1041 0 947 0 
L 241 0 
Q 147 0 106 37 
Q 66 75 66 131 
Q 66 191 106 227 
Q 147 263 241 263 
L 463 263 
L 463 2441 
L 241 2441 
Q 147 2441 106 2478 
Q 66 2516 66 2575 
Q 66 2631 106 2668 
Q 147 2706 241 2706 
L 725 2706 
z
" transform="scale(0.015625)"/>
        <path id="CourierNewPSMT-6f" d="M 3388 1347 
Q 3388 747 2958 322 
Q 2528 -103 1922 -103 
Q 1309 -103 881 323 
Q 453 750 453 1347 
Q 453 1947 881 2373 
Q 1309 2800 1922 2800 
Q 2528 2800 2958 2375 
Q 3388 1950 3388 1347 
z
M 3122 1347 
Q 3122 1841 2770 2187 
Q 2419 2534 1919 2534 
Q 1419 2534 1067 2186 
Q 716 1838 716 1347 
Q 716 859 1067 509 
Q 1419 159 1919 159 
Q 2419 159 2770 507 
Q 3122 856 3122 1347 
z
" transform="scale(0.015625)"/>
       </defs>
       <use xlink:href="#CourierNewPSMT-47"/>
       <use xlink:href="#CourierNewPSMT-61" transform="translate(60.009766 0)"/>
       <use xlink:href="#CourierNewPSMT-70" transform="translate(120.019531 0)"/>
       <use xlink:href="#CourierNewPSMT-44" transform="translate(180.029297 0)"/>
       <use xlink:href="#CourierNewPSMT-65" transform="translate(240.039062 0)"/>
       <use xlink:href="#CourierNewPSMT-6d" transform="translate(300.048828 0)"/>
       <use xlink:href="#CourierNewPSMT-6f" transform="translate(360.058594 0)"/>
      </g>
     </g>
    </g>
    <g id="xtick_5">
     <g id="line2d_5">
      <g>
       <use xlink:href="#m0dddc24e28" x="367.280341" y="265.269611" style="stroke: #000000; stroke-width: 0.8"/>
      </g>
     </g>
     <g id="text_5">
      <!-- MissingEnd -->
      <g transform="translate(288.494503 356.717385) rotate(-45) scale(0.18 -0.18)">
       <defs>
        <path id="CourierNewPSMT-4d" d="M 2094 1097 
L 1794 1097 
L 784 3394 
L 734 3394 
L 734 263 
L 1219 263 
Q 1313 263 1353 227 
Q 1394 191 1394 131 
Q 1394 75 1353 37 
Q 1313 0 1219 0 
L 250 0 
Q 156 0 115 37 
Q 75 75 75 131 
Q 75 191 115 227 
Q 156 263 250 263 
L 472 263 
L 472 3394 
L 306 3394 
Q 213 3394 172 3430 
Q 131 3466 131 3525 
Q 131 3584 172 3620 
Q 213 3656 306 3656 
L 950 3656 
L 1944 1394 
L 2922 3656 
L 3566 3656 
Q 3663 3656 3703 3620 
Q 3744 3584 3744 3525 
Q 3744 3466 3703 3430 
Q 3663 3394 3566 3394 
L 3403 3394 
L 3403 263 
L 3622 263 
Q 3719 263 3759 227 
Q 3800 191 3800 131 
Q 3800 75 3759 37 
Q 3719 0 3622 0 
L 2656 0 
Q 2563 0 2520 37 
Q 2478 75 2478 131 
Q 2478 191 2518 227 
Q 2559 263 2656 263 
L 3141 263 
L 3141 3394 
L 3084 3394 
L 2094 1097 
z
" transform="scale(0.015625)"/>
        <path id="CourierNewPSMT-67" d="M 2803 2225 
L 2803 2706 
L 3419 2706 
Q 3513 2706 3553 2668 
Q 3594 2631 3594 2572 
Q 3594 2516 3553 2478 
Q 3513 2441 3419 2441 
L 3066 2441 
L 3066 -181 
Q 3066 -444 2953 -650 
Q 2878 -788 2703 -934 
Q 2528 -1081 2384 -1143 
Q 2241 -1206 2000 -1206 
L 1256 -1206 
Q 1163 -1206 1122 -1170 
Q 1081 -1134 1081 -1075 
Q 1081 -1016 1122 -978 
Q 1163 -941 1256 -941 
L 2009 -944 
Q 2241 -944 2427 -825 
Q 2613 -706 2734 -478 
Q 2803 -347 2803 -144 
L 2803 644 
Q 2381 66 1716 66 
Q 1175 66 783 467 
Q 391 869 391 1434 
Q 391 2000 783 2400 
Q 1175 2800 1716 2800 
Q 2381 2800 2803 2225 
z
M 2803 1434 
Q 2803 1897 2486 2215 
Q 2169 2534 1728 2534 
Q 1288 2534 972 2214 
Q 656 1894 656 1434 
Q 656 972 972 651 
Q 1288 331 1728 331 
Q 2169 331 2486 651 
Q 2803 972 2803 1434 
z
" transform="scale(0.015625)"/>
        <path id="CourierNewPSMT-45" d="M 1066 1766 
L 1066 263 
L 3084 263 
L 3084 1038 
Q 3084 1131 3120 1172 
Q 3156 1213 3216 1213 
Q 3275 1213 3311 1172 
Q 3347 1131 3347 1038 
L 3347 0 
L 450 0 
Q 356 0 315 37 
Q 275 75 275 131 
Q 275 191 315 227 
Q 356 263 450 263 
L 803 263 
L 803 3394 
L 450 3394 
Q 356 3394 315 3430 
Q 275 3466 275 3525 
Q 275 3584 315 3620 
Q 356 3656 450 3656 
L 3209 3656 
L 3209 2753 
Q 3209 2659 3173 2618 
Q 3138 2578 3078 2578 
Q 3019 2578 2983 2618 
Q 2947 2659 2947 2753 
L 2947 3394 
L 1066 3394 
L 1066 2028 
L 2006 2028 
L 2006 2325 
Q 2006 2419 2043 2459 
Q 2081 2500 2141 2500 
Q 2197 2500 2234 2459 
Q 2272 2419 2272 2325 
L 2272 1469 
Q 2272 1375 2234 1334 
Q 2197 1294 2141 1294 
Q 2081 1294 2043 1334 
Q 2006 1375 2006 1469 
L 2006 1766 
L 1066 1766 
z
" transform="scale(0.015625)"/>
       </defs>
       <use xlink:href="#CourierNewPSMT-4d"/>
       <use xlink:href="#CourierNewPSMT-69" transform="translate(60.009766 0)"/>
       <use xlink:href="#CourierNewPSMT-73" transform="translate(120.019531 0)"/>
       <use xlink:href="#CourierNewPSMT-73" transform="translate(180.029297 0)"/>
       <use xlink:href="#CourierNewPSMT-69" transform="translate(240.039062 0)"/>
       <use xlink:href="#CourierNewPSMT-6e" transform="translate(300.048828 0)"/>
       <use xlink:href="#CourierNewPSMT-67" transform="translate(360.058594 0)"/>
       <use xlink:href="#CourierNewPSMT-45" transform="translate(420.068359 0)"/>
       <use xlink:href="#CourierNewPSMT-6e" transform="translate(480.078125 0)"/>
       <use xlink:href="#CourierNewPSMT-64" transform="translate(540.087891 0)"/>
      </g>
     </g>
    </g>
    <g id="xtick_6">
     <g id="line2d_6">
      <g>
       <use xlink:href="#m0dddc24e28" x="426.007614" y="265.269611" style="stroke: #000000; stroke-width: 0.8"/>
      </g>
     </g>
     <g id="text_6">
      <!-- NoDeficiencies -->
      <g transform="translate(316.666808 387.011828) rotate(-45) scale(0.18 -0.18)">
       <defs>
        <path id="CourierNewPSMT-4e" d="M 3206 0 
L 2869 0 
L 934 3272 
L 934 263 
L 1419 263 
Q 1516 263 1556 227 
Q 1597 191 1597 131 
Q 1597 75 1556 37 
Q 1516 0 1419 0 
L 453 0 
Q 356 0 315 37 
Q 275 75 275 131 
Q 275 191 315 227 
Q 356 263 453 263 
L 672 263 
L 672 3394 
L 319 3394 
Q 225 3394 184 3430 
Q 144 3466 144 3525 
Q 144 3584 184 3620 
Q 225 3656 319 3656 
L 1006 3656 
L 2944 378 
L 2944 3394 
L 2459 3394 
Q 2366 3394 2325 3430 
Q 2284 3466 2284 3525 
Q 2284 3584 2323 3620 
Q 2363 3656 2459 3656 
L 3428 3656 
Q 3522 3656 3562 3620 
Q 3603 3584 3603 3525 
Q 3603 3466 3562 3430 
Q 3522 3394 3428 3394 
L 3206 3394 
L 3206 0 
z
" transform="scale(0.015625)"/>
        <path id="CourierNewPSMT-66" d="M 1747 2441 
L 1747 263 
L 2900 263 
Q 2994 263 3034 227 
Q 3075 191 3075 131 
Q 3075 75 3034 37 
Q 2994 0 2900 0 
L 847 0 
Q 753 0 712 37 
Q 672 75 672 131 
Q 672 191 712 227 
Q 753 263 847 263 
L 1481 263 
L 1481 2441 
L 913 2441 
Q 819 2441 778 2478 
Q 738 2516 738 2575 
Q 738 2631 778 2668 
Q 819 2706 913 2706 
L 1481 2706 
L 1481 3103 
Q 1481 3434 1750 3678 
Q 2019 3922 2463 3922 
Q 2834 3922 3256 3853 
Q 3416 3828 3448 3793 
Q 3481 3759 3481 3703 
Q 3481 3647 3443 3611 
Q 3406 3575 3344 3575 
Q 3319 3575 3259 3584 
Q 2788 3656 2463 3656 
Q 2119 3656 1933 3487 
Q 1747 3319 1747 3103 
L 1747 2706 
L 2975 2706 
Q 3069 2706 3109 2668 
Q 3150 2631 3150 2572 
Q 3150 2516 3109 2478 
Q 3069 2441 2975 2441 
L 1747 2441 
z
" transform="scale(0.015625)"/>
       </defs>
       <use xlink:href="#CourierNewPSMT-4e"/>
       <use xlink:href="#CourierNewPSMT-6f" transform="translate(60.009766 0)"/>
       <use xlink:href="#CourierNewPSMT-44" transform="translate(120.019531 0)"/>
       <use xlink:href="#CourierNewPSMT-65" transform="translate(180.029297 0)"/>
       <use xlink:href="#CourierNewPSMT-66" transform="translate(240.039062 0)"/>
       <use xlink:href="#CourierNewPSMT-69" transform="translate(300.048828 0)"/>
       <use xlink:href="#CourierNewPSMT-63" transform="translate(360.058594 0)"/>
       <use xlink:href="#CourierNewPSMT-69" transform="translate(420.068359 0)"/>
       <use xlink:href="#CourierNewPSMT-65" transform="translate(480.078125 0)"/>
       <use xlink:href="#CourierNewPSMT-6e" transform="translate(540.087891 0)"/>
       <use xlink:href="#CourierNewPSMT-63" transform="translate(600.097656 0)"/>
       <use xlink:href="#CourierNewPSMT-69" transform="translate(660.107422 0)"/>
       <use xlink:href="#CourierNewPSMT-65" transform="translate(720.117188 0)"/>
       <use xlink:href="#CourierNewPSMT-73" transform="translate(780.126953 0)"/>
      </g>
     </g>
    </g>
    <g id="xtick_7">
     <g id="line2d_7">
      <g>
       <use xlink:href="#m0dddc24e28" x="484.734886" y="265.269611" style="stroke: #000000; stroke-width: 0.8"/>
      </g>
     </g>
     <g id="text_7">
      <!-- Rust -->
      <g transform="translate(451.781501 310.624408) rotate(-45) scale(0.18 -0.18)">
       <defs>
        <path id="CourierNewPSMT-52" d="M 1066 1631 
L 1066 263 
L 1550 263 
Q 1647 263 1687 227 
Q 1728 191 1728 131 
Q 1728 75 1687 37 
Q 1647 0 1550 0 
L 450 0 
Q 356 0 315 37 
Q 275 75 275 131 
Q 275 191 315 227 
Q 356 263 450 263 
L 803 263 
L 803 3394 
L 450 3394 
Q 356 3394 315 3430 
Q 275 3466 275 3525 
Q 275 3584 315 3620 
Q 356 3656 450 3656 
L 2038 3656 
Q 2528 3656 2864 3345 
Q 3200 3034 3200 2644 
Q 3200 2363 2992 2114 
Q 2784 1866 2297 1700 
Q 2578 1506 2778 1262 
Q 2978 1019 3419 263 
L 3619 263 
Q 3713 263 3753 227 
Q 3794 191 3794 131 
Q 3794 75 3753 37 
Q 3713 0 3619 0 
L 3269 0 
Q 2781 872 2514 1169 
Q 2247 1466 1900 1631 
L 1066 1631 
z
M 1066 1894 
L 1781 1894 
Q 2125 1894 2404 2019 
Q 2684 2144 2811 2312 
Q 2938 2481 2938 2656 
Q 2938 2919 2673 3156 
Q 2409 3394 2031 3394 
L 1066 3394 
L 1066 1894 
z
" transform="scale(0.015625)"/>
        <path id="CourierNewPSMT-75" d="M 2819 0 
L 2819 384 
Q 2281 -103 1656 -103 
Q 1272 -103 1072 106 
Q 813 381 813 747 
L 813 2441 
L 459 2441 
Q 366 2441 325 2478 
Q 284 2516 284 2575 
Q 284 2631 325 2668 
Q 366 2706 459 2706 
L 1075 2706 
L 1075 747 
Q 1075 491 1237 325 
Q 1400 159 1644 159 
Q 2284 159 2819 747 
L 2819 2441 
L 2334 2441 
Q 2241 2441 2200 2478 
Q 2159 2516 2159 2575 
Q 2159 2631 2200 2668 
Q 2241 2706 2334 2706 
L 3081 2706 
L 3081 263 
L 3303 263 
Q 3397 263 3437 227 
Q 3478 191 3478 131 
Q 3478 75 3437 37 
Q 3397 0 3303 0 
L 2819 0 
z
" transform="scale(0.015625)"/>
       </defs>
       <use xlink:href="#CourierNewPSMT-52"/>
       <use xlink:href="#CourierNewPSMT-75" transform="translate(60.009766 0)"/>
       <use xlink:href="#CourierNewPSMT-73" transform="translate(120.019531 0)"/>
       <use xlink:href="#CourierNewPSMT-74" transform="translate(180.029297 0)"/>
      </g>
     </g>
    </g>
    <g id="xtick_8">
     <g id="line2d_8">
      <g>
       <use xlink:href="#m0dddc24e28" x="543.462159" y="265.269611" style="stroke: #000000; stroke-width: 0.8"/>
      </g>
     </g>
     <g id="text_8">
      <!-- ScratchedSurface -->
      <g transform="translate(418.84387 402.289312) rotate(-45) scale(0.18 -0.18)">
       <defs>
        <path id="CourierNewPSMT-53" d="M 2859 3394 
L 2859 3481 
Q 2859 3575 2895 3615 
Q 2931 3656 2991 3656 
Q 3050 3656 3086 3615 
Q 3122 3575 3122 3481 
L 3122 2813 
Q 3122 2719 3086 2678 
Q 3050 2638 2991 2638 
Q 2934 2638 2898 2675 
Q 2863 2713 2859 2797 
Q 2844 3059 2589 3268 
Q 2334 3478 1922 3478 
Q 1488 3478 1231 3254 
Q 975 3031 975 2728 
Q 975 2572 1047 2444 
Q 1119 2316 1237 2236 
Q 1356 2156 1506 2107 
Q 1656 2059 1975 2006 
Q 2509 1919 2713 1828 
Q 2984 1706 3123 1490 
Q 3263 1275 3263 981 
Q 3263 531 2903 214 
Q 2544 -103 1934 -103 
Q 1250 -103 841 325 
L 841 175 
Q 841 81 805 40 
Q 769 0 709 0 
Q 653 0 615 40 
Q 578 81 578 175 
L 578 900 
Q 578 997 614 1037 
Q 650 1078 709 1078 
Q 766 1078 802 1040 
Q 838 1003 841 919 
Q 856 631 1148 395 
Q 1441 159 1934 159 
Q 2428 159 2714 406 
Q 3000 653 3000 991 
Q 3000 1197 2890 1358 
Q 2781 1519 2566 1613 
Q 2416 1678 1941 1759 
Q 1288 1869 1000 2094 
Q 713 2319 713 2734 
Q 713 3147 1042 3444 
Q 1372 3741 1913 3741 
Q 2463 3741 2859 3394 
z
" transform="scale(0.015625)"/>
        <path id="CourierNewPSMT-68" d="M 1056 3922 
L 1056 2306 
Q 1306 2578 1536 2689 
Q 1766 2800 2050 2800 
Q 2356 2800 2570 2692 
Q 2784 2584 2928 2361 
Q 3072 2138 3072 1891 
L 3072 263 
L 3366 263 
Q 3463 263 3502 227 
Q 3541 191 3541 131 
Q 3541 75 3502 37 
Q 3463 0 3366 0 
L 2513 0 
Q 2416 0 2375 37 
Q 2334 75 2334 131 
Q 2334 191 2375 227 
Q 2416 263 2513 263 
L 2806 263 
L 2806 1872 
Q 2806 2156 2601 2347 
Q 2397 2538 2031 2538 
Q 1744 2538 1541 2397 
Q 1394 2297 1056 1925 
L 1056 263 
L 1353 263 
Q 1447 263 1487 227 
Q 1528 191 1528 131 
Q 1528 75 1487 37 
Q 1447 0 1353 0 
L 497 0 
Q 403 0 362 37 
Q 322 75 322 131 
Q 322 191 362 227 
Q 403 263 497 263 
L 794 263 
L 794 3656 
L 441 3656 
Q 347 3656 306 3693 
Q 266 3731 266 3791 
Q 266 3847 306 3884 
Q 347 3922 441 3922 
L 1056 3922 
z
" transform="scale(0.015625)"/>
       </defs>
       <use xlink:href="#CourierNewPSMT-53"/>
       <use xlink:href="#CourierNewPSMT-63" transform="translate(60.009766 0)"/>
       <use xlink:href="#CourierNewPSMT-72" transform="translate(120.019531 0)"/>
       <use xlink:href="#CourierNewPSMT-61" transform="translate(180.029297 0)"/>
       <use xlink:href="#CourierNewPSMT-74" transform="translate(240.039062 0)"/>
       <use xlink:href="#CourierNewPSMT-63" transform="translate(300.048828 0)"/>
       <use xlink:href="#CourierNewPSMT-68" transform="translate(360.058594 0)"/>
       <use xlink:href="#CourierNewPSMT-65" transform="translate(420.068359 0)"/>
       <use xlink:href="#CourierNewPSMT-64" transform="translate(480.078125 0)"/>
       <use xlink:href="#CourierNewPSMT-53" transform="translate(540.087891 0)"/>
       <use xlink:href="#CourierNewPSMT-75" transform="translate(600.097656 0)"/>
       <use xlink:href="#CourierNewPSMT-72" transform="translate(660.107422 0)"/>
       <use xlink:href="#CourierNewPSMT-66" transform="translate(720.117188 0)"/>
       <use xlink:href="#CourierNewPSMT-61" transform="translate(780.126953 0)"/>
       <use xlink:href="#CourierNewPSMT-63" transform="translate(840.136719 0)"/>
       <use xlink:href="#CourierNewPSMT-65" transform="translate(900.146484 0)"/>
      </g>
     </g>
    </g>
    <g id="xtick_9">
     <g id="line2d_9">
      <g>
       <use xlink:href="#m0dddc24e28" x="602.189432" y="265.269611" style="stroke: #000000; stroke-width: 0.8"/>
      </g>
     </g>
     <g id="text_9">
      <!-- Silicatestain -->
      <g transform="translate(500.487368 379.373086) rotate(-45) scale(0.18 -0.18)">
       <use xlink:href="#CourierNewPSMT-53"/>
       <use xlink:href="#CourierNewPSMT-69" transform="translate(60.009766 0)"/>
       <use xlink:href="#CourierNewPSMT-6c" transform="translate(120.019531 0)"/>
       <use xlink:href="#CourierNewPSMT-69" transform="translate(180.029297 0)"/>
       <use xlink:href="#CourierNewPSMT-63" transform="translate(240.039062 0)"/>
       <use xlink:href="#CourierNewPSMT-61" transform="translate(300.048828 0)"/>
       <use xlink:href="#CourierNewPSMT-74" transform="translate(360.058594 0)"/>
       <use xlink:href="#CourierNewPSMT-65" transform="translate(420.068359 0)"/>
       <use xlink:href="#CourierNewPSMT-73" transform="translate(480.078125 0)"/>
       <use xlink:href="#CourierNewPSMT-74" transform="translate(540.087891 0)"/>
       <use xlink:href="#CourierNewPSMT-61" transform="translate(600.097656 0)"/>
       <use xlink:href="#CourierNewPSMT-69" transform="translate(660.107422 0)"/>
       <use xlink:href="#CourierNewPSMT-6e" transform="translate(720.117188 0)"/>
      </g>
     </g>
    </g>
    <g id="xtick_10">
     <g id="line2d_10">
      <g>
       <use xlink:href="#m0dddc24e28" x="660.916705" y="265.269611" style="stroke: #000000; stroke-width: 0.8"/>
      </g>
     </g>
     <g id="text_10">
      <!-- UnknownStains -->
      <g transform="translate(559.214641 379.373086) rotate(-45) scale(0.18 -0.18)">
       <defs>
        <path id="CourierNewPSMT-55" d="M 3191 3394 
L 3191 1200 
Q 3191 647 2822 272 
Q 2453 -103 1931 -103 
Q 1581 -103 1309 50 
Q 1038 203 847 514 
Q 656 825 656 1200 
L 656 3394 
L 434 3394 
Q 341 3394 300 3430 
Q 259 3466 259 3525 
Q 259 3584 303 3625 
Q 341 3656 434 3656 
L 1403 3656 
Q 1497 3656 1537 3620 
Q 1578 3584 1578 3525 
Q 1578 3466 1537 3430 
Q 1497 3394 1403 3394 
L 919 3394 
L 919 1200 
Q 919 766 1216 462 
Q 1513 159 1919 159 
Q 2178 159 2392 278 
Q 2606 397 2767 644 
Q 2928 891 2928 1200 
L 2928 3394 
L 2444 3394 
Q 2350 3394 2309 3430 
Q 2269 3466 2269 3525 
Q 2269 3584 2309 3620 
Q 2350 3656 2444 3656 
L 3413 3656 
Q 3506 3656 3547 3620 
Q 3588 3584 3588 3525 
Q 3588 3466 3547 3430 
Q 3506 3394 3413 3394 
L 3191 3394 
z
" transform="scale(0.015625)"/>
        <path id="CourierNewPSMT-77" d="M 2825 0 
L 2500 -3 
L 1922 1684 
L 1347 -3 
L 1022 0 
L 478 2441 
L 350 2441 
Q 256 2441 215 2478 
Q 175 2516 175 2575 
Q 175 2631 215 2668 
Q 256 2706 350 2706 
L 1072 2706 
Q 1166 2706 1206 2668 
Q 1247 2631 1247 2572 
Q 1247 2516 1206 2478 
Q 1166 2441 1072 2441 
L 738 2441 
L 1203 359 
L 1763 2022 
L 2075 2022 
L 2650 359 
L 3097 2441 
L 2766 2441 
Q 2672 2441 2630 2478 
Q 2588 2516 2588 2575 
Q 2588 2631 2628 2668 
Q 2669 2706 2766 2706 
L 3484 2706 
Q 3581 2706 3622 2668 
Q 3663 2631 3663 2572 
Q 3663 2516 3622 2478 
Q 3581 2441 3484 2441 
L 3359 2441 
L 2825 0 
z
" transform="scale(0.015625)"/>
       </defs>
       <use xlink:href="#CourierNewPSMT-55"/>
       <use xlink:href="#CourierNewPSMT-6e" transform="translate(60.009766 0)"/>
       <use xlink:href="#CourierNewPSMT-6b" transform="translate(120.019531 0)"/>
       <use xlink:href="#CourierNewPSMT-6e" transform="translate(180.029297 0)"/>
       <use xlink:href="#CourierNewPSMT-6f" transform="translate(240.039062 0)"/>
       <use xlink:href="#CourierNewPSMT-77" transform="translate(300.048828 0)"/>
       <use xlink:href="#CourierNewPSMT-6e" transform="translate(360.058594 0)"/>
       <use xlink:href="#CourierNewPSMT-53" transform="translate(420.068359 0)"/>
       <use xlink:href="#CourierNewPSMT-74" transform="translate(480.078125 0)"/>
       <use xlink:href="#CourierNewPSMT-61" transform="translate(540.087891 0)"/>
       <use xlink:href="#CourierNewPSMT-69" transform="translate(600.097656 0)"/>
       <use xlink:href="#CourierNewPSMT-6e" transform="translate(660.107422 0)"/>
       <use xlink:href="#CourierNewPSMT-73" transform="translate(720.117188 0)"/>
      </g>
     </g>
    </g>
    <g id="xtick_11">
     <g id="line2d_11">
      <g>
       <use xlink:href="#m0dddc24e28" x="719.643977" y="265.269611" style="stroke: #000000; stroke-width: 0.8"/>
      </g>
     </g>
     <g id="text_11">
      <!-- Unknown -->
      <g transform="translate(663.774366 333.540634) rotate(-45) scale(0.18 -0.18)">
       <use xlink:href="#CourierNewPSMT-55"/>
       <use xlink:href="#CourierNewPSMT-6e" transform="translate(60.009766 0)"/>
       <use xlink:href="#CourierNewPSMT-6b" transform="translate(120.019531 0)"/>
       <use xlink:href="#CourierNewPSMT-6e" transform="translate(180.029297 0)"/>
       <use xlink:href="#CourierNewPSMT-6f" transform="translate(240.039062 0)"/>
       <use xlink:href="#CourierNewPSMT-77" transform="translate(300.048828 0)"/>
       <use xlink:href="#CourierNewPSMT-6e" transform="translate(360.058594 0)"/>
      </g>
     </g>
    </g>
    <g id="xtick_12">
     <g id="line2d_12">
      <g>
       <use xlink:href="#m0dddc24e28" x="778.37125" y="265.269611" style="stroke: #000000; stroke-width: 0.8"/>
      </g>
     </g>
     <g id="text_12">
      <!-- Waterstains -->
      <g transform="translate(691.94667 364.095602) rotate(-45) scale(0.18 -0.18)">
       <defs>
        <path id="CourierNewPSMT-57" d="M 3072 0 
L 2659 0 
L 1916 2597 
L 1188 0 
L 775 0 
L 388 3394 
L 291 3394 
Q 197 3394 156 3430 
Q 116 3466 116 3525 
Q 116 3584 156 3620 
Q 197 3656 291 3656 
L 1266 3656 
Q 1363 3656 1403 3620 
Q 1444 3584 1444 3525 
Q 1444 3466 1403 3430 
Q 1363 3394 1266 3394 
L 653 3394 
L 1000 300 
L 1709 2847 
L 2113 2847 
L 2841 300 
L 3181 3394 
L 2566 3394 
Q 2472 3394 2431 3430 
Q 2391 3466 2391 3525 
Q 2391 3584 2431 3620 
Q 2472 3656 2566 3656 
L 3534 3656 
Q 3631 3656 3672 3620 
Q 3713 3584 3713 3525 
Q 3713 3466 3672 3430 
Q 3631 3394 3534 3394 
L 3438 3394 
L 3072 0 
z
" transform="scale(0.015625)"/>
       </defs>
       <use xlink:href="#CourierNewPSMT-57"/>
       <use xlink:href="#CourierNewPSMT-61" transform="translate(60.009766 0)"/>
       <use xlink:href="#CourierNewPSMT-74" transform="translate(120.019531 0)"/>
       <use xlink:href="#CourierNewPSMT-65" transform="translate(180.029297 0)"/>
       <use xlink:href="#CourierNewPSMT-72" transform="translate(240.039062 0)"/>
       <use xlink:href="#CourierNewPSMT-73" transform="translate(300.048828 0)"/>
       <use xlink:href="#CourierNewPSMT-74" transform="translate(360.058594 0)"/>
       <use xlink:href="#CourierNewPSMT-61" transform="translate(420.068359 0)"/>
       <use xlink:href="#CourierNewPSMT-69" transform="translate(480.078125 0)"/>
       <use xlink:href="#CourierNewPSMT-6e" transform="translate(540.087891 0)"/>
       <use xlink:href="#CourierNewPSMT-73" transform="translate(600.097656 0)"/>
      </g>
     </g>
    </g>
   </g>
   <g id="matplotlib.axis_2">
    <g id="ytick_1">
     <g id="line2d_13">
      <path d="M 74.23125 265.269611 
L 836.51125 265.269611 
" clip-path="url(#p527ad2242a)" style="fill: none; stroke-dasharray: 2.96,1.28; stroke-dashoffset: 0; stroke: #b0b0b0; stroke-opacity: 0.7; stroke-width: 0.8"/>
     </g>
     <g id="line2d_14">
      <defs>
       <path id="m354ed87b74" d="M 0 0 
L -3.5 0 
" style="stroke: #000000; stroke-width: 0.8"/>
      </defs>
      <g>
       <use xlink:href="#m354ed87b74" x="74.23125" y="265.269611" style="stroke: #000000; stroke-width: 0.8"/>
      </g>
     </g>
     <g id="text_13">
      <!-- 0 -->
      <g transform="translate(56.428438 270.784923) scale(0.18 -0.18)">
       <defs>
        <path id="CourierNewPSMT-30" d="M 3125 2284 
L 3125 1634 
Q 3125 788 2722 294 
Q 2406 -94 1925 -94 
Q 1694 -94 1489 -1 
Q 1284 91 1141 256 
Q 1050 359 942 587 
Q 834 816 788 1006 
Q 716 1275 716 1634 
L 716 2284 
Q 716 3134 1119 3628 
Q 1434 4016 1916 4016 
Q 2150 4016 2353 3923 
Q 2556 3831 2700 3666 
Q 2794 3559 2900 3331 
Q 3006 3103 3056 2916 
Q 3125 2647 3125 2284 
z
M 2863 2250 
Q 2863 2622 2758 2942 
Q 2653 3263 2522 3453 
Q 2444 3563 2319 3641 
Q 2141 3750 1919 3750 
Q 1478 3750 1228 3300 
Q 978 2850 978 2250 
L 978 1672 
Q 978 1300 1083 978 
Q 1188 656 1322 466 
Q 1397 359 1522 281 
Q 1700 169 1925 169 
Q 2363 169 2613 620 
Q 2863 1072 2863 1672 
L 2863 2250 
z
" transform="scale(0.015625)"/>
       </defs>
       <use xlink:href="#CourierNewPSMT-30"/>
      </g>
     </g>
    </g>
    <g id="ytick_2">
     <g id="line2d_15">
      <path d="M 74.23125 213.655688 
L 836.51125 213.655688 
" clip-path="url(#p527ad2242a)" style="fill: none; stroke-dasharray: 2.96,1.28; stroke-dashoffset: 0; stroke: #b0b0b0; stroke-opacity: 0.7; stroke-width: 0.8"/>
     </g>
     <g id="line2d_16">
      <g>
       <use xlink:href="#m354ed87b74" x="74.23125" y="213.655688" style="stroke: #000000; stroke-width: 0.8"/>
      </g>
     </g>
     <g id="text_14">
      <!-- 500 -->
      <g transform="translate(34.822813 219.171001) scale(0.18 -0.18)">
       <defs>
        <path id="CourierNewPSMT-35" d="M 1197 3656 
L 1197 2372 
Q 1428 2469 1640 2517 
Q 1853 2566 2044 2566 
Q 2538 2566 2870 2219 
Q 3203 1872 3203 1306 
Q 3203 681 2828 293 
Q 2453 -94 1891 -94 
Q 1519 -94 1175 72 
Q 931 188 731 359 
Q 613 463 613 531 
Q 613 588 650 627 
Q 688 666 738 666 
Q 791 666 850 609 
Q 1322 169 1878 169 
Q 2338 169 2638 483 
Q 2938 797 2938 1319 
Q 2938 1763 2678 2033 
Q 2419 2303 2019 2303 
Q 1609 2303 1200 2088 
Q 1100 2038 1059 2038 
Q 1003 2038 968 2075 
Q 934 2113 934 2181 
L 934 3922 
L 2766 3922 
Q 2859 3922 2900 3884 
Q 2941 3847 2941 3788 
Q 2941 3731 2900 3693 
Q 2859 3656 2766 3656 
L 1197 3656 
z
" transform="scale(0.015625)"/>
       </defs>
       <use xlink:href="#CourierNewPSMT-35"/>
       <use xlink:href="#CourierNewPSMT-30" transform="translate(60.009766 0)"/>
       <use xlink:href="#CourierNewPSMT-30" transform="translate(120.019531 0)"/>
      </g>
     </g>
    </g>
    <g id="ytick_3">
     <g id="line2d_17">
      <path d="M 74.23125 162.041766 
L 836.51125 162.041766 
" clip-path="url(#p527ad2242a)" style="fill: none; stroke-dasharray: 2.96,1.28; stroke-dashoffset: 0; stroke: #b0b0b0; stroke-opacity: 0.7; stroke-width: 0.8"/>
     </g>
     <g id="line2d_18">
      <g>
       <use xlink:href="#m354ed87b74" x="74.23125" y="162.041766" style="stroke: #000000; stroke-width: 0.8"/>
      </g>
     </g>
     <g id="text_15">
      <!-- 1000 -->
      <g transform="translate(24.02 167.557079) scale(0.18 -0.18)">
       <defs>
        <path id="CourierNewPSMT-31" d="M 2050 3975 
L 2050 263 
L 2950 263 
Q 3044 263 3084 227 
Q 3125 191 3125 131 
Q 3125 75 3084 37 
Q 3044 0 2950 0 
L 888 0 
Q 794 0 753 37 
Q 713 75 713 131 
Q 713 191 753 227 
Q 794 263 888 263 
L 1788 263 
L 1788 3613 
L 931 3344 
Q 869 3325 841 3325 
Q 794 3325 755 3364 
Q 716 3403 716 3456 
Q 716 3503 747 3544 
Q 772 3569 850 3597 
L 2050 3975 
z
" transform="scale(0.015625)"/>
       </defs>
       <use xlink:href="#CourierNewPSMT-31"/>
       <use xlink:href="#CourierNewPSMT-30" transform="translate(60.009766 0)"/>
       <use xlink:href="#CourierNewPSMT-30" transform="translate(120.019531 0)"/>
       <use xlink:href="#CourierNewPSMT-30" transform="translate(180.029297 0)"/>
      </g>
     </g>
    </g>
    <g id="ytick_4">
     <g id="line2d_19">
      <path d="M 74.23125 110.427844 
L 836.51125 110.427844 
" clip-path="url(#p527ad2242a)" style="fill: none; stroke-dasharray: 2.96,1.28; stroke-dashoffset: 0; stroke: #b0b0b0; stroke-opacity: 0.7; stroke-width: 0.8"/>
     </g>
     <g id="line2d_20">
      <g>
       <use xlink:href="#m354ed87b74" x="74.23125" y="110.427844" style="stroke: #000000; stroke-width: 0.8"/>
      </g>
     </g>
     <g id="text_16">
      <!-- 1500 -->
      <g transform="translate(24.02 115.943157) scale(0.18 -0.18)">
       <use xlink:href="#CourierNewPSMT-31"/>
       <use xlink:href="#CourierNewPSMT-35" transform="translate(60.009766 0)"/>
       <use xlink:href="#CourierNewPSMT-30" transform="translate(120.019531 0)"/>
       <use xlink:href="#CourierNewPSMT-30" transform="translate(180.029297 0)"/>
      </g>
     </g>
    </g>
    <g id="ytick_5">
     <g id="line2d_21">
      <path d="M 74.23125 58.813922 
L 836.51125 58.813922 
" clip-path="url(#p527ad2242a)" style="fill: none; stroke-dasharray: 2.96,1.28; stroke-dashoffset: 0; stroke: #b0b0b0; stroke-opacity: 0.7; stroke-width: 0.8"/>
     </g>
     <g id="line2d_22">
      <g>
       <use xlink:href="#m354ed87b74" x="74.23125" y="58.813922" style="stroke: #000000; stroke-width: 0.8"/>
      </g>
     </g>
     <g id="text_17">
      <!-- 2000 -->
      <g transform="translate(24.02 64.329235) scale(0.18 -0.18)">
       <defs>
        <path id="CourierNewPSMT-32" d="M 791 263 
L 2806 263 
L 2806 366 
Q 2806 459 2843 500 
Q 2881 541 2941 541 
Q 2997 541 3034 500 
Q 3072 459 3072 366 
L 3072 0 
L 534 0 
L 534 388 
Q 1334 1106 2091 1850 
Q 2444 2197 2575 2359 
Q 2706 2522 2754 2645 
Q 2803 2769 2803 2894 
Q 2803 3231 2531 3490 
Q 2259 3750 1875 3750 
Q 1531 3750 1265 3553 
Q 1000 3356 922 3066 
Q 903 2991 875 2969 
Q 838 2938 788 2938 
Q 734 2938 698 2973 
Q 663 3009 663 3059 
Q 663 3209 827 3465 
Q 991 3722 1280 3869 
Q 1569 4016 1872 4016 
Q 2363 4016 2716 3675 
Q 3069 3334 3069 2903 
Q 3069 2722 3009 2570 
Q 2950 2419 2808 2239 
Q 2666 2059 2297 1697 
Q 1372 784 791 281 
L 791 263 
z
" transform="scale(0.015625)"/>
       </defs>
       <use xlink:href="#CourierNewPSMT-32"/>
       <use xlink:href="#CourierNewPSMT-30" transform="translate(60.009766 0)"/>
       <use xlink:href="#CourierNewPSMT-30" transform="translate(120.019531 0)"/>
       <use xlink:href="#CourierNewPSMT-30" transform="translate(180.029297 0)"/>
      </g>
     </g>
    </g>
    <g id="text_18">
     <!-- Anz. Bilder -->
     <g transform="translate(17.005 189.048555) rotate(-90) scale(0.16 -0.16)">
      <defs>
       <path id="CourierNewPSMT-41" d="M 2784 1222 
L 1059 1222 
L 706 263 
L 1209 263 
Q 1303 263 1343 227 
Q 1384 191 1384 131 
Q 1384 75 1343 37 
Q 1303 0 1209 0 
L 228 0 
Q 134 0 93 37 
Q 53 75 53 131 
Q 53 191 93 227 
Q 134 263 228 263 
L 431 263 
L 1591 3394 
L 816 3394 
Q 722 3394 681 3430 
Q 641 3466 641 3525 
Q 641 3584 681 3620 
Q 722 3656 816 3656 
L 2138 3656 
L 3419 263 
L 3622 263 
Q 3716 263 3756 227 
Q 3797 191 3797 131 
Q 3797 75 3756 37 
Q 3716 0 3622 0 
L 2644 0 
Q 2547 0 2506 37 
Q 2466 75 2466 131 
Q 2466 191 2506 227 
Q 2547 263 2644 263 
L 3144 263 
L 2784 1222 
z
M 2684 1484 
L 1959 3394 
L 1863 3394 
L 1159 1484 
L 2684 1484 
z
" transform="scale(0.015625)"/>
       <path id="CourierNewPSMT-7a" d="M 3069 2706 
L 3069 2472 
L 1103 263 
L 2878 263 
L 2878 625 
Q 2878 719 2914 759 
Q 2950 800 3009 800 
Q 3069 800 3106 759 
Q 3144 719 3144 625 
L 3141 0 
L 741 0 
L 741 234 
L 2697 2441 
L 1066 2441 
L 1066 2084 
Q 1066 1991 1028 1950 
Q 991 1909 934 1909 
Q 875 1909 837 1950 
Q 800 1991 800 2084 
L 800 2706 
L 3069 2706 
z
" transform="scale(0.015625)"/>
       <path id="CourierNewPSMT-2e" d="M 1866 753 
L 1978 753 
Q 2153 753 2278 629 
Q 2403 506 2403 331 
Q 2403 150 2276 28 
Q 2150 -94 1978 -94 
L 1866 -94 
Q 1691 -94 1566 29 
Q 1441 153 1441 328 
Q 1441 509 1567 631 
Q 1694 753 1866 753 
z
" transform="scale(0.015625)"/>
       <path id="CourierNewPSMT-20" transform="scale(0.015625)"/>
      </defs>
      <use xlink:href="#CourierNewPSMT-41"/>
      <use xlink:href="#CourierNewPSMT-6e" transform="translate(60.009766 0)"/>
      <use xlink:href="#CourierNewPSMT-7a" transform="translate(120.019531 0)"/>
      <use xlink:href="#CourierNewPSMT-2e" transform="translate(180.029297 0)"/>
      <use xlink:href="#CourierNewPSMT-20" transform="translate(240.039062 0)"/>
      <use xlink:href="#CourierNewPSMT-42" transform="translate(300.048828 0)"/>
      <use xlink:href="#CourierNewPSMT-69" transform="translate(360.058594 0)"/>
      <use xlink:href="#CourierNewPSMT-6c" transform="translate(420.068359 0)"/>
      <use xlink:href="#CourierNewPSMT-64" transform="translate(480.078125 0)"/>
      <use xlink:href="#CourierNewPSMT-65" transform="translate(540.087891 0)"/>
      <use xlink:href="#CourierNewPSMT-72" transform="translate(600.097656 0)"/>
     </g>
    </g>
   </g>
   <g id="patch_15">
    <path d="M 74.23125 265.269611 
L 74.23125 7.2 
" style="fill: none; stroke: #000000; stroke-width: 0.8; stroke-linejoin: miter; stroke-linecap: square"/>
   </g>
   <g id="patch_16">
    <path d="M 836.51125 265.269611 
L 836.51125 7.2 
" style="fill: none; stroke: #000000; stroke-width: 0.8; stroke-linejoin: miter; stroke-linecap: square"/>
   </g>
   <g id="patch_17">
    <path d="M 74.23125 265.269611 
L 836.51125 265.269611 
" style="fill: none; stroke: #000000; stroke-width: 0.8; stroke-linejoin: miter; stroke-linecap: square"/>
   </g>
   <g id="patch_18">
    <path d="M 74.23125 7.2 
L 836.51125 7.2 
" style="fill: none; stroke: #000000; stroke-width: 0.8; stroke-linejoin: miter; stroke-linecap: square"/>
   </g>
   <g id="text_19">
    <!-- 563 -->
    <g transform="translate(117.9675 204.137334) scale(0.16 -0.16)">
     <defs>
      <path id="CourierNewPSMT-36" d="M 1138 1659 
Q 1381 2019 1639 2191 
Q 1897 2363 2213 2363 
Q 2631 2363 2956 2014 
Q 3281 1666 3281 1153 
Q 3281 684 2984 295 
Q 2688 -94 2166 -94 
Q 1825 -94 1529 115 
Q 1234 325 1066 759 
Q 856 1300 856 1956 
Q 856 2450 1053 2875 
Q 1203 3203 1453 3451 
Q 1703 3700 2036 3858 
Q 2369 4016 2756 4016 
Q 3019 4016 3194 3909 
Q 3269 3863 3269 3784 
Q 3269 3728 3234 3692 
Q 3200 3656 3147 3656 
Q 3106 3656 3050 3688 
Q 2922 3750 2731 3750 
Q 2122 3750 1620 3226 
Q 1119 2703 1119 1981 
Q 1119 1878 1138 1659 
z
M 1197 1225 
Q 1316 656 1570 412 
Q 1825 169 2172 169 
Q 2522 169 2770 442 
Q 3019 716 3019 1153 
Q 3019 1563 2769 1831 
Q 2519 2100 2203 2100 
Q 1900 2100 1619 1841 
Q 1431 1669 1197 1225 
z
" transform="scale(0.015625)"/>
      <path id="CourierNewPSMT-33" d="M 2459 2134 
Q 2822 1972 3012 1689 
Q 3203 1406 3203 1100 
Q 3203 628 2820 267 
Q 2438 -94 1863 -94 
Q 1525 -94 1162 50 
Q 800 194 656 344 
Q 609 394 609 450 
Q 609 500 645 537 
Q 681 575 731 575 
Q 781 575 844 528 
Q 1328 169 1869 169 
Q 2325 169 2633 455 
Q 2941 741 2941 1091 
Q 2941 1325 2789 1550 
Q 2638 1775 2353 1904 
Q 2069 2034 1778 2034 
Q 1684 2034 1643 2070 
Q 1603 2106 1603 2166 
Q 1603 2222 1642 2259 
Q 1681 2297 1759 2297 
L 1984 2294 
Q 2338 2294 2567 2509 
Q 2797 2725 2797 3009 
Q 2797 3303 2556 3528 
Q 2316 3753 1928 3753 
Q 1656 3753 1428 3659 
Q 1200 3566 1063 3403 
Q 1013 3341 986 3327 
Q 959 3313 925 3313 
Q 872 3313 834 3348 
Q 797 3384 797 3434 
Q 797 3559 1069 3750 
Q 1447 4016 1928 4016 
Q 2425 4016 2744 3717 
Q 3063 3419 3063 3006 
Q 3063 2744 2909 2509 
Q 2756 2275 2459 2134 
z
" transform="scale(0.015625)"/>
     </defs>
     <use xlink:href="#CourierNewPSMT-35"/>
     <use xlink:href="#CourierNewPSMT-36" transform="translate(60.009766 0)"/>
     <use xlink:href="#CourierNewPSMT-33" transform="translate(120.019531 0)"/>
    </g>
   </g>
   <g id="text_20">
    <!-- 36 -->
    <g transform="translate(181.496023 258.538408) scale(0.16 -0.16)">
     <use xlink:href="#CourierNewPSMT-33"/>
     <use xlink:href="#CourierNewPSMT-36" transform="translate(60.009766 0)"/>
    </g>
   </g>
   <g id="text_21">
    <!-- 327 -->
    <g transform="translate(235.422045 228.499106) scale(0.16 -0.16)">
     <defs>
      <path id="CourierNewPSMT-37" d="M 2803 3538 
L 2803 3656 
L 922 3656 
L 922 3425 
Q 922 3331 886 3290 
Q 850 3250 791 3250 
Q 734 3250 696 3290 
Q 659 3331 659 3425 
L 659 3922 
L 3069 3922 
L 3069 3503 
L 2013 128 
Q 1988 47 1953 20 
Q 1919 -6 1875 -6 
Q 1819 -6 1781 31 
Q 1744 69 1744 119 
Q 1744 150 1763 206 
L 2803 3538 
z
" transform="scale(0.015625)"/>
     </defs>
     <use xlink:href="#CourierNewPSMT-33"/>
     <use xlink:href="#CourierNewPSMT-32" transform="translate(60.009766 0)"/>
     <use xlink:href="#CourierNewPSMT-37" transform="translate(120.019531 0)"/>
    </g>
   </g>
   <g id="text_22">
    <!-- 143 -->
    <g transform="translate(294.149318 247.493029) scale(0.16 -0.16)">
     <defs>
      <path id="CourierNewPSMT-34" d="M 2409 1097 
L 669 1097 
L 669 1400 
L 2128 3922 
L 2675 3922 
L 2675 1359 
L 2894 1359 
Q 2991 1359 3031 1323 
Q 3072 1288 3072 1228 
Q 3072 1172 3031 1134 
Q 2991 1097 2894 1097 
L 2675 1097 
L 2675 263 
L 2894 263 
Q 2991 263 3031 227 
Q 3072 191 3072 131 
Q 3072 75 3031 37 
Q 2991 0 2894 0 
L 1919 0 
Q 1822 0 1781 37 
Q 1741 75 1741 131 
Q 1741 191 1781 227 
Q 1822 263 1919 263 
L 2409 263 
L 2409 1097 
z
M 2409 1359 
L 2409 3656 
L 2272 3656 
L 944 1359 
L 2409 1359 
z
" transform="scale(0.015625)"/>
     </defs>
     <use xlink:href="#CourierNewPSMT-31"/>
     <use xlink:href="#CourierNewPSMT-34" transform="translate(60.009766 0)"/>
     <use xlink:href="#CourierNewPSMT-33" transform="translate(120.019531 0)"/>
    </g>
   </g>
   <g id="text_23">
    <!-- 317 -->
    <g transform="translate(352.876591 229.531384) scale(0.16 -0.16)">
     <use xlink:href="#CourierNewPSMT-33"/>
     <use xlink:href="#CourierNewPSMT-31" transform="translate(60.009766 0)"/>
     <use xlink:href="#CourierNewPSMT-37" transform="translate(120.019531 0)"/>
    </g>
   </g>
   <g id="text_24">
    <!-- 2289 -->
    <g transform="translate(406.802614 25.966075) scale(0.16 -0.16)">
     <defs>
      <path id="CourierNewPSMT-38" d="M 2459 2034 
Q 2788 1875 2955 1614 
Q 3122 1353 3122 1053 
Q 3122 588 2772 247 
Q 2422 -94 1922 -94 
Q 1422 -94 1072 247 
Q 722 588 722 1053 
Q 722 1350 889 1611 
Q 1056 1872 1388 2034 
Q 1100 2200 969 2378 
Q 788 2631 788 2938 
Q 788 3369 1120 3692 
Q 1453 4016 1922 4016 
Q 2394 4016 2725 3692 
Q 3056 3369 3056 2938 
Q 3056 2631 2875 2381 
Q 2747 2200 2459 2034 
z
M 2788 2928 
Q 2788 3266 2536 3508 
Q 2284 3750 1919 3750 
Q 1556 3750 1304 3506 
Q 1053 3263 1053 2931 
Q 1053 2625 1301 2395 
Q 1550 2166 1919 2166 
Q 2291 2166 2539 2395 
Q 2788 2625 2788 2928 
z
M 2859 1047 
Q 2859 1394 2590 1650 
Q 2322 1906 1922 1906 
Q 1522 1906 1253 1650 
Q 984 1394 984 1050 
Q 984 694 1254 431 
Q 1525 169 1922 169 
Q 2319 169 2589 431 
Q 2859 694 2859 1047 
z
" transform="scale(0.015625)"/>
      <path id="CourierNewPSMT-39" d="M 2997 2219 
Q 2794 1859 2514 1678 
Q 2234 1497 1941 1497 
Q 1669 1497 1414 1653 
Q 1159 1809 1009 2111 
Q 859 2413 859 2744 
Q 859 3225 1157 3620 
Q 1456 4016 1956 4016 
Q 2313 4016 2606 3794 
Q 2900 3572 3063 3150 
Q 3272 2609 3272 1894 
Q 3272 1338 3094 969 
Q 2975 719 2745 484 
Q 2516 250 2228 103 
Q 1834 -94 1409 -94 
Q 1128 -94 950 13 
Q 869 63 869 138 
Q 869 191 906 227 
Q 944 263 997 263 
Q 1034 263 1106 228 
Q 1228 169 1388 169 
Q 2053 169 2531 648 
Q 3009 1128 3009 1850 
Q 3009 1981 2997 2219 
z
M 2947 2656 
Q 2781 3291 2536 3520 
Q 2291 3750 1963 3750 
Q 1628 3750 1375 3469 
Q 1122 3188 1122 2747 
Q 1122 2319 1375 2039 
Q 1628 1759 1947 1759 
Q 2131 1759 2311 1859 
Q 2491 1959 2650 2159 
Q 2753 2294 2947 2656 
z
" transform="scale(0.015625)"/>
     </defs>
     <use xlink:href="#CourierNewPSMT-32"/>
     <use xlink:href="#CourierNewPSMT-32" transform="translate(60.009766 0)"/>
     <use xlink:href="#CourierNewPSMT-38" transform="translate(120.019531 0)"/>
     <use xlink:href="#CourierNewPSMT-39" transform="translate(180.029297 0)"/>
    </g>
   </g>
   <g id="text_25">
    <!-- 585 -->
    <g transform="translate(470.331136 201.866322) scale(0.16 -0.16)">
     <use xlink:href="#CourierNewPSMT-35"/>
     <use xlink:href="#CourierNewPSMT-38" transform="translate(60.009766 0)"/>
     <use xlink:href="#CourierNewPSMT-35" transform="translate(120.019531 0)"/>
    </g>
   </g>
   <g id="text_26">
    <!-- 542 -->
    <g transform="translate(529.058409 206.305119) scale(0.16 -0.16)">
     <use xlink:href="#CourierNewPSMT-35"/>
     <use xlink:href="#CourierNewPSMT-34" transform="translate(60.009766 0)"/>
     <use xlink:href="#CourierNewPSMT-32" transform="translate(120.019531 0)"/>
    </g>
   </g>
   <g id="text_27">
    <!-- 89 -->
    <g transform="translate(592.586932 253.067332) scale(0.16 -0.16)">
     <use xlink:href="#CourierNewPSMT-38"/>
     <use xlink:href="#CourierNewPSMT-39" transform="translate(60.009766 0)"/>
    </g>
   </g>
   <g id="text_28">
    <!-- 201 -->
    <g transform="translate(646.512955 241.505814) scale(0.16 -0.16)">
     <use xlink:href="#CourierNewPSMT-32"/>
     <use xlink:href="#CourierNewPSMT-30" transform="translate(60.009766 0)"/>
     <use xlink:href="#CourierNewPSMT-31" transform="translate(120.019531 0)"/>
    </g>
   </g>
   <g id="text_29">
    <!-- 53 -->
    <g transform="translate(710.041477 256.783535) scale(0.16 -0.16)">
     <use xlink:href="#CourierNewPSMT-35"/>
     <use xlink:href="#CourierNewPSMT-33" transform="translate(60.009766 0)"/>
    </g>
   </g>
   <g id="text_30">
    <!-- 397 -->
    <g transform="translate(763.9675 221.273156) scale(0.16 -0.16)">
     <use xlink:href="#CourierNewPSMT-33"/>
     <use xlink:href="#CourierNewPSMT-39" transform="translate(60.009766 0)"/>
     <use xlink:href="#CourierNewPSMT-37" transform="translate(120.019531 0)"/>
    </g>
   </g>
  </g>
 </g>
 <defs>
  <clipPath id="p527ad2242a">
   <rect x="74.23125" y="7.2" width="762.28" height="258.069611"/>
  </clipPath>
 </defs>
</svg>
