<?xml version="1.0" encoding="utf-8" standalone="no"?>
<!DOCTYPE svg PUBLIC "-//W3C//DTD SVG 1.1//EN"
  "http://www.w3.org/Graphics/SVG/1.1/DTD/svg11.dtd">
<svg xmlns:xlink="http://www.w3.org/1999/xlink" width="843.71125pt" height="411.649081pt" viewBox="0 0 843.71125 411.649081" xmlns="http://www.w3.org/2000/svg" version="1.1">
 <metadata>
  <rdf:RDF xmlns:dc="http://purl.org/dc/elements/1.1/" xmlns:cc="http://creativecommons.org/ns#" xmlns:rdf="http://www.w3.org/1999/02/22-rdf-syntax-ns#">
   <cc:Work>
    <dc:type rdf:resource="http://purl.org/dc/dcmitype/StillImage"/>
    <dc:date>2026-02-26T18:15:32.727800</dc:date>
    <dc:format>image/svg+xml</dc:format>
    <dc:creator>
     <cc:Agent>
      <dc:title>Matplotlib v3.10.6, https://matplotlib.org/</dc:title>
     </cc:Agent>
    </dc:creator>
   </cc:Work>
  </rdf:RDF>
 </metadata>
 <defs>
  <style type="text/css">*{stroke-linejoin: round; stroke-linecap: butt}</style>
 </defs>
 <g id="figure_1">
  <g id="patch_1">
   <path d="M 0 411.649081 
L 843.71125 411.649081 
L 843.71125 0 
L 0 0 
z
" style="fill: #ffffff"/>
  </g>
  <g id="axes_1">
   <g id="patch_2">
    <path d="M 74.23125 278.960082 
L 836.51125 278.960082 
L 836.51125 7.2 
L 74.23125 7.2 
z
" style="fill: #ffffff"/>
   </g>
   <g id="patch_3">
    <path d="M 108.880341 278.960082 
L 137.165313 278.960082 
L 137.165313 236.565509 
L 108.880341 236.565509 
z
" clip-path="url(#p975900e5b4)" style="fill: #00a89e"/>
   </g>
   <g id="patch_4">
    <path d="M 179.592771 278.960082 
L 207.877744 278.960082 
L 207.877744 275.578178 
L 179.592771 275.578178 
z
" clip-path="url(#p975900e5b4)" style="fill: #00a89e"/>
   </g>
   <g id="patch_5">
    <path d="M 250.305202 278.960082 
L 278.590174 278.960082 
L 278.590174 213.012969 
L 250.305202 213.012969 
z
" clip-path="url(#p975900e5b4)" style="fill: #00a89e"/>
   </g>
   <g id="patch_6">
    <path d="M 321.017632 278.960082 
L 349.302604 278.960082 
L 349.302604 247.073565 
L 321.017632 247.073565 
z
" clip-path="url(#p975900e5b4)" style="fill: #00a89e"/>
   </g>
   <g id="patch_7">
    <path d="M 391.730063 278.960082 
L 420.015035 278.960082 
L 420.015035 115.78325 
L 391.730063 115.78325 
z
" clip-path="url(#p975900e5b4)" style="fill: #00a89e"/>
   </g>
   <g id="patch_8">
    <path d="M 462.442493 278.960082 
L 490.727465 278.960082 
L 490.727465 243.208533 
L 462.442493 243.208533 
z
" clip-path="url(#p975900e5b4)" style="fill: #00a89e"/>
   </g>
   <g id="patch_9">
    <path d="M 533.154923 278.960082 
L 561.439896 278.960082 
L 561.439896 102.014073 
L 533.154923 102.014073 
z
" clip-path="url(#p975900e5b4)" style="fill: #00a89e"/>
   </g>
   <g id="patch_10">
    <path d="M 603.867354 278.960082 
L 632.152326 278.960082 
L 632.152326 259.151791 
L 603.867354 259.151791 
z
" clip-path="url(#p975900e5b4)" style="fill: #00a89e"/>
   </g>
   <g id="patch_11">
    <path d="M 674.579784 278.960082 
L 702.864756 278.960082 
L 702.864756 269.297501 
L 674.579784 269.297501 
z
" clip-path="url(#p975900e5b4)" style="fill: #00a89e"/>
   </g>
   <g id="patch_12">
    <path d="M 745.292215 278.960082 
L 773.577187 278.960082 
L 773.577187 239.464283 
L 745.292215 239.464283 
z
" clip-path="url(#p975900e5b4)" style="fill: #00a89e"/>
   </g>
   <g id="patch_13">
    <path d="M 137.165313 278.960082 
L 165.450285 278.960082 
L 165.450285 236.565509 
L 137.165313 236.565509 
z
" clip-path="url(#p975900e5b4)" style="fill: #cc6633"/>
   </g>
   <g id="patch_14">
    <path d="M 207.877744 278.960082 
L 236.162716 278.960082 
L 236.162716 255.649106 
L 207.877744 255.649106 
z
" clip-path="url(#p975900e5b4)" style="fill: #cc6633"/>
   </g>
   <g id="patch_15">
    <path d="M 278.590174 278.960082 
L 306.875146 278.960082 
L 306.875146 195.861888 
L 278.590174 195.861888 
z
" clip-path="url(#p975900e5b4)" style="fill: #cc6633"/>
   </g>
   <g id="patch_16">
    <path d="M 349.302604 278.960082 
L 377.587577 278.960082 
L 377.587577 242.846186 
L 349.302604 242.846186 
z
" clip-path="url(#p975900e5b4)" style="fill: #cc6633"/>
   </g>
   <g id="patch_17">
    <path d="M 420.015035 278.960082 
L 448.300007 278.960082 
L 448.300007 70.248339 
L 420.015035 70.248339 
z
" clip-path="url(#p975900e5b4)" style="fill: #cc6633"/>
   </g>
   <g id="patch_18">
    <path d="M 490.727465 278.960082 
L 519.012437 278.960082 
L 519.012437 236.565509 
L 490.727465 236.565509 
z
" clip-path="url(#p975900e5b4)" style="fill: #cc6633"/>
   </g>
   <g id="patch_19">
    <path d="M 561.439896 278.960082 
L 589.724868 278.960082 
L 589.724868 92.351492 
L 561.439896 92.351492 
z
" clip-path="url(#p975900e5b4)" style="fill: #cc6633"/>
   </g>
   <g id="patch_20">
    <path d="M 632.152326 278.960082 
L 660.437298 278.960082 
L 660.437298 256.253017 
L 632.152326 256.253017 
z
" clip-path="url(#p975900e5b4)" style="fill: #cc6633"/>
   </g>
   <g id="patch_21">
    <path d="M 702.864756 278.960082 
L 731.149729 278.960082 
L 731.149729 265.915598 
L 702.864756 265.915598 
z
" clip-path="url(#p975900e5b4)" style="fill: #cc6633"/>
   </g>
   <g id="patch_22">
    <path d="M 773.577187 278.960082 
L 801.862159 278.960082 
L 801.862159 237.290203 
L 773.577187 237.290203 
z
" clip-path="url(#p975900e5b4)" style="fill: #cc6633"/>
   </g>
   <g id="matplotlib.axis_1">
    <g id="xtick_1">
     <g id="line2d_1">
      <defs>
       <path id="m69e4b2aa1f" d="M 0 0 
L 0 3.5 
" style="stroke: #000000; stroke-width: 0.8"/>
      </defs>
      <g>
       <use xlink:href="#m69e4b2aa1f" x="137.165313" y="278.960082" style="stroke: #000000; stroke-width: 0.8"/>
      </g>
     </g>
     <g id="text_1">
      <!-- background -->
      <g transform="translate(58.379476 370.147331) rotate(-45) scale(0.18 -0.18)">
       <defs>
        <path id="CourierNewPSMT-62" d="M 931 3922 
L 931 2181 
Q 1406 2800 2078 2800 
Q 2653 2800 3062 2383 
Q 3472 1966 3472 1359 
Q 3472 747 3058 322 
Q 2644 -103 2078 -103 
Q 1391 -103 931 516 
L 931 0 
L 316 0 
Q 222 0 181 37 
Q 141 75 141 131 
Q 141 191 181 227 
Q 222 263 316 263 
L 669 263 
L 669 3656 
L 316 3656 
Q 222 3656 181 3693 
Q 141 3731 141 3791 
Q 141 3847 181 3884 
Q 222 3922 316 3922 
L 931 3922 
z
M 3209 1347 
Q 3209 1844 2868 2189 
Q 2528 2534 2072 2534 
Q 1616 2534 1275 2189 
Q 934 1844 934 1347 
Q 934 850 1275 504 
Q 1616 159 2072 159 
Q 2528 159 2868 504 
Q 3209 850 3209 1347 
z
" transform="scale(0.015625)"/>
        <path id="CourierNewPSMT-61" d="M 2675 0 
L 2675 378 
Q 2103 -103 1453 -103 
Q 981 -103 715 136 
Q 450 375 450 722 
Q 450 1103 800 1387 
Q 1150 1672 1822 1672 
Q 2003 1672 2215 1648 
Q 2428 1625 2675 1575 
L 2675 2000 
Q 2675 2216 2475 2375 
Q 2275 2534 1875 2534 
Q 1569 2534 1016 2356 
Q 916 2325 888 2325 
Q 838 2325 802 2362 
Q 766 2400 766 2456 
Q 766 2509 797 2541 
Q 841 2588 1150 2669 
Q 1638 2800 1888 2800 
Q 2384 2800 2662 2554 
Q 2941 2309 2941 2000 
L 2941 263 
L 3291 263 
Q 3388 263 3428 227 
Q 3469 191 3469 131 
Q 3469 75 3428 37 
Q 3388 0 3291 0 
L 2675 0 
z
M 2675 1306 
Q 2491 1359 2284 1384 
Q 2078 1409 1850 1409 
Q 1278 1409 956 1163 
Q 713 978 713 722 
Q 713 484 898 321 
Q 1084 159 1441 159 
Q 1781 159 2073 295 
Q 2366 431 2675 728 
L 2675 1306 
z
" transform="scale(0.015625)"/>
        <path id="CourierNewPSMT-63" d="M 3016 2441 
L 3016 2528 
Q 3016 2625 3053 2665 
Q 3091 2706 3147 2706 
Q 3206 2706 3243 2665 
Q 3281 2625 3281 2528 
L 3281 1934 
Q 3278 1838 3242 1797 
Q 3206 1756 3147 1756 
Q 3094 1756 3058 1792 
Q 3022 1828 3016 1913 
Q 2997 2134 2723 2334 
Q 2450 2534 1988 2534 
Q 1403 2534 1100 2168 
Q 797 1803 797 1331 
Q 797 822 1131 490 
Q 1466 159 1997 159 
Q 2303 159 2620 271 
Q 2938 384 3194 634 
Q 3259 697 3309 697 
Q 3363 697 3398 661 
Q 3434 625 3434 572 
Q 3434 438 3119 231 
Q 2609 -103 1984 -103 
Q 1350 -103 942 301 
Q 534 706 534 1328 
Q 534 1963 951 2381 
Q 1369 2800 2003 2800 
Q 2606 2800 3016 2441 
z
" transform="scale(0.015625)"/>
        <path id="CourierNewPSMT-6b" d="M 1388 1169 
L 1388 0 
L 772 0 
Q 678 0 637 37 
Q 597 75 597 131 
Q 597 191 637 227 
Q 678 263 772 263 
L 1125 263 
L 1125 3656 
L 772 3656 
Q 678 3656 637 3693 
Q 597 3731 597 3791 
Q 597 3847 637 3884 
Q 678 3922 772 3922 
L 1388 3922 
L 1388 1503 
L 2503 2441 
L 2369 2441 
Q 2275 2441 2234 2478 
Q 2194 2516 2194 2572 
Q 2194 2631 2234 2668 
Q 2275 2706 2369 2706 
L 3209 2706 
Q 3306 2706 3347 2668 
Q 3388 2631 3388 2572 
Q 3388 2516 3347 2478 
Q 3306 2441 3209 2441 
L 2906 2441 
L 1881 1584 
L 3178 263 
L 3481 263 
Q 3578 263 3618 227 
Q 3659 191 3659 131 
Q 3659 75 3618 37 
Q 3578 0 3481 0 
L 2631 0 
Q 2538 0 2497 37 
Q 2456 75 2456 131 
Q 2456 191 2497 227 
Q 2538 263 2631 263 
L 2816 263 
L 1688 1422 
L 1388 1169 
z
" transform="scale(0.015625)"/>
        <path id="CourierNewPSMT-67" d="M 2803 2225 
L 2803 2706 
L 3419 2706 
Q 3513 2706 3553 2668 
Q 3594 2631 3594 2572 
Q 3594 2516 3553 2478 
Q 3513 2441 3419 2441 
L 3066 2441 
L 3066 -181 
Q 3066 -444 2953 -650 
Q 2878 -788 2703 -934 
Q 2528 -1081 2384 -1143 
Q 2241 -1206 2000 -1206 
L 1256 -1206 
Q 1163 -1206 1122 -1170 
Q 1081 -1134 1081 -1075 
Q 1081 -1016 1122 -978 
Q 1163 -941 1256 -941 
L 2009 -944 
Q 2241 -944 2427 -825 
Q 2613 -706 2734 -478 
Q 2803 -347 2803 -144 
L 2803 644 
Q 2381 66 1716 66 
Q 1175 66 783 467 
Q 391 869 391 1434 
Q 391 2000 783 2400 
Q 1175 2800 1716 2800 
Q 2381 2800 2803 2225 
z
M 2803 1434 
Q 2803 1897 2486 2215 
Q 2169 2534 1728 2534 
Q 1288 2534 972 2214 
Q 656 1894 656 1434 
Q 656 972 972 651 
Q 1288 331 1728 331 
Q 2169 331 2486 651 
Q 2803 972 2803 1434 
z
" transform="scale(0.015625)"/>
        <path id="CourierNewPSMT-72" d="M 1606 2706 
L 1606 2044 
Q 2119 2506 2373 2639 
Q 2628 2772 2844 2772 
Q 3078 2772 3279 2614 
Q 3481 2456 3481 2375 
Q 3481 2316 3442 2277 
Q 3403 2238 3344 2238 
Q 3313 2238 3291 2248 
Q 3269 2259 3209 2319 
Q 3100 2428 3019 2468 
Q 2938 2509 2859 2509 
Q 2688 2509 2445 2371 
Q 2203 2234 1606 1700 
L 1606 263 
L 2769 263 
Q 2866 263 2906 227 
Q 2947 191 2947 131 
Q 2947 75 2906 37 
Q 2866 0 2769 0 
L 709 0 
Q 616 0 575 36 
Q 534 72 534 128 
Q 534 181 573 217 
Q 613 253 709 253 
L 1344 253 
L 1344 2441 
L 859 2441 
Q 766 2441 725 2478 
Q 684 2516 684 2575 
Q 684 2631 723 2668 
Q 763 2706 859 2706 
L 1606 2706 
z
" transform="scale(0.015625)"/>
        <path id="CourierNewPSMT-6f" d="M 3388 1347 
Q 3388 747 2958 322 
Q 2528 -103 1922 -103 
Q 1309 -103 881 323 
Q 453 750 453 1347 
Q 453 1947 881 2373 
Q 1309 2800 1922 2800 
Q 2528 2800 2958 2375 
Q 3388 1950 3388 1347 
z
M 3122 1347 
Q 3122 1841 2770 2187 
Q 2419 2534 1919 2534 
Q 1419 2534 1067 2186 
Q 716 1838 716 1347 
Q 716 859 1067 509 
Q 1419 159 1919 159 
Q 2419 159 2770 507 
Q 3122 856 3122 1347 
z
" transform="scale(0.015625)"/>
        <path id="CourierNewPSMT-75" d="M 2819 0 
L 2819 384 
Q 2281 -103 1656 -103 
Q 1272 -103 1072 106 
Q 813 381 813 747 
L 813 2441 
L 459 2441 
Q 366 2441 325 2478 
Q 284 2516 284 2575 
Q 284 2631 325 2668 
Q 366 2706 459 2706 
L 1075 2706 
L 1075 747 
Q 1075 491 1237 325 
Q 1400 159 1644 159 
Q 2284 159 2819 747 
L 2819 2441 
L 2334 2441 
Q 2241 2441 2200 2478 
Q 2159 2516 2159 2575 
Q 2159 2631 2200 2668 
Q 2241 2706 2334 2706 
L 3081 2706 
L 3081 263 
L 3303 263 
Q 3397 263 3437 227 
Q 3478 191 3478 131 
Q 3478 75 3437 37 
Q 3397 0 3303 0 
L 2819 0 
z
" transform="scale(0.015625)"/>
        <path id="CourierNewPSMT-6e" d="M 1072 2706 
L 1072 2309 
Q 1347 2588 1569 2694 
Q 1791 2800 2069 2800 
Q 2369 2800 2616 2672 
Q 2791 2578 2933 2361 
Q 3075 2144 3075 1916 
L 3075 263 
L 3297 263 
Q 3391 263 3431 227 
Q 3472 191 3472 131 
Q 3472 75 3431 37 
Q 3391 0 3297 0 
L 2594 0 
Q 2497 0 2456 37 
Q 2416 75 2416 131 
Q 2416 191 2456 227 
Q 2497 263 2594 263 
L 2813 263 
L 2813 1872 
Q 2813 2150 2609 2342 
Q 2406 2534 2066 2534 
Q 1806 2534 1615 2429 
Q 1425 2325 1072 1909 
L 1072 263 
L 1369 263 
Q 1463 263 1503 227 
Q 1544 191 1544 131 
Q 1544 75 1503 37 
Q 1463 0 1369 0 
L 513 0 
Q 419 0 378 37 
Q 338 75 338 131 
Q 338 191 378 227 
Q 419 263 513 263 
L 809 263 
L 809 2441 
L 588 2441 
Q 494 2441 453 2478 
Q 413 2516 413 2575 
Q 413 2631 453 2668 
Q 494 2706 588 2706 
L 1072 2706 
z
" transform="scale(0.015625)"/>
        <path id="CourierNewPSMT-64" d="M 3206 3922 
L 3206 263 
L 3556 263 
Q 3653 263 3693 227 
Q 3734 191 3734 131 
Q 3734 75 3693 37 
Q 3653 0 3556 0 
L 2941 0 
L 2941 522 
Q 2484 -103 1781 -103 
Q 1425 -103 1098 86 
Q 772 275 583 625 
Q 394 975 394 1347 
Q 394 1722 583 2070 
Q 772 2419 1098 2609 
Q 1425 2800 1784 2800 
Q 2472 2800 2941 2175 
L 2941 3656 
L 2591 3656 
Q 2494 3656 2453 3693 
Q 2413 3731 2413 3791 
Q 2413 3847 2453 3884 
Q 2494 3922 2591 3922 
L 3206 3922 
z
M 2941 1347 
Q 2941 1847 2603 2190 
Q 2266 2534 1800 2534 
Q 1331 2534 993 2190 
Q 656 1847 656 1347 
Q 656 850 993 504 
Q 1331 159 1800 159 
Q 2266 159 2603 504 
Q 2941 850 2941 1347 
z
" transform="scale(0.015625)"/>
       </defs>
       <use xlink:href="#CourierNewPSMT-62"/>
       <use xlink:href="#CourierNewPSMT-61" transform="translate(60.009766 0)"/>
       <use xlink:href="#CourierNewPSMT-63" transform="translate(120.019531 0)"/>
       <use xlink:href="#CourierNewPSMT-6b" transform="translate(180.029297 0)"/>
       <use xlink:href="#CourierNewPSMT-67" transform="translate(240.039062 0)"/>
       <use xlink:href="#CourierNewPSMT-72" transform="translate(300.048828 0)"/>
       <use xlink:href="#CourierNewPSMT-6f" transform="translate(360.058594 0)"/>
       <use xlink:href="#CourierNewPSMT-75" transform="translate(420.068359 0)"/>
       <use xlink:href="#CourierNewPSMT-6e" transform="translate(480.078125 0)"/>
       <use xlink:href="#CourierNewPSMT-64" transform="translate(540.087891 0)"/>
      </g>
     </g>
    </g>
    <g id="xtick_2">
     <g id="line2d_2">
      <g>
       <use xlink:href="#m69e4b2aa1f" x="207.877744" y="278.960082" style="stroke: #000000; stroke-width: 0.8"/>
      </g>
     </g>
     <g id="text_2">
      <!-- black_stain -->
      <g transform="translate(120.365324 378.046598) rotate(-45) scale(0.18 -0.18)">
       <defs>
        <path id="CourierNewPSMT-6c" d="M 2053 3922 
L 2053 263 
L 3084 263 
Q 3181 263 3222 227 
Q 3263 191 3263 131 
Q 3263 75 3222 37 
Q 3181 0 3084 0 
L 759 0 
Q 666 0 625 37 
Q 584 75 584 131 
Q 584 191 625 227 
Q 666 263 759 263 
L 1791 263 
L 1791 3656 
L 1034 3656 
Q 941 3656 898 3693 
Q 856 3731 856 3791 
Q 856 3847 897 3884 
Q 938 3922 1034 3922 
L 2053 3922 
z
" transform="scale(0.015625)"/>
        <path id="CourierNewPSMT-5f" d="M 3666 -1753 
L 175 -1753 
Q 81 -1753 40 -1717 
Q 0 -1681 0 -1622 
Q 0 -1563 40 -1527 
Q 81 -1491 175 -1491 
L 3666 -1491 
Q 3763 -1491 3802 -1527 
Q 3841 -1563 3841 -1622 
Q 3841 -1681 3802 -1717 
Q 3763 -1753 3666 -1753 
z
" transform="scale(0.015625)"/>
        <path id="CourierNewPSMT-73" d="M 2788 2534 
Q 2788 2625 2825 2665 
Q 2863 2706 2919 2706 
Q 2978 2706 3015 2665 
Q 3053 2625 3053 2528 
L 3053 2078 
Q 3053 1984 3015 1943 
Q 2978 1903 2919 1903 
Q 2866 1903 2830 1937 
Q 2794 1972 2788 2050 
Q 2769 2238 2594 2359 
Q 2338 2534 1916 2534 
Q 1475 2534 1231 2356 
Q 1047 2222 1047 2056 
Q 1047 1869 1266 1744 
Q 1416 1656 1834 1609 
Q 2381 1550 2594 1475 
Q 2897 1366 3045 1172 
Q 3194 978 3194 753 
Q 3194 419 2872 158 
Q 2550 -103 1928 -103 
Q 1306 -103 909 213 
Q 909 106 896 75 
Q 884 44 851 22 
Q 819 0 778 0 
Q 722 0 684 40 
Q 647 81 647 175 
L 647 716 
Q 647 809 683 850 
Q 719 891 778 891 
Q 834 891 873 852 
Q 913 813 913 747 
Q 913 603 984 506 
Q 1094 356 1333 257 
Q 1572 159 1919 159 
Q 2431 159 2681 350 
Q 2931 541 2931 753 
Q 2931 997 2678 1144 
Q 2422 1291 1933 1341 
Q 1444 1391 1231 1472 
Q 1019 1553 900 1715 
Q 781 1878 781 2066 
Q 781 2403 1112 2601 
Q 1444 2800 1903 2800 
Q 2447 2800 2788 2534 
z
" transform="scale(0.015625)"/>
        <path id="CourierNewPSMT-74" d="M 1381 2706 
L 2806 2706 
Q 2900 2706 2940 2668 
Q 2981 2631 2981 2572 
Q 2981 2516 2940 2478 
Q 2900 2441 2806 2441 
L 1381 2441 
L 1381 694 
Q 1381 466 1564 312 
Q 1747 159 2100 159 
Q 2366 159 2675 239 
Q 2984 319 3156 419 
Q 3219 459 3259 459 
Q 3309 459 3346 420 
Q 3384 381 3384 328 
Q 3384 281 3344 241 
Q 3244 138 2858 17 
Q 2472 -103 2119 -103 
Q 1659 -103 1387 112 
Q 1116 328 1116 694 
L 1116 2441 
L 631 2441 
Q 538 2441 497 2478 
Q 456 2516 456 2575 
Q 456 2631 497 2668 
Q 538 2706 631 2706 
L 1116 2706 
L 1116 3481 
Q 1116 3575 1153 3615 
Q 1191 3656 1247 3656 
Q 1306 3656 1343 3615 
Q 1381 3575 1381 3481 
L 1381 2706 
z
" transform="scale(0.015625)"/>
        <path id="CourierNewPSMT-69" d="M 2050 4053 
L 2050 3375 
L 1663 3375 
L 1663 4053 
L 2050 4053 
z
M 2059 2706 
L 2059 263 
L 3091 263 
Q 3188 263 3228 227 
Q 3269 191 3269 131 
Q 3269 75 3228 37 
Q 3188 0 3091 0 
L 766 0 
Q 672 0 631 37 
Q 591 75 591 131 
Q 591 191 631 227 
Q 672 263 766 263 
L 1797 263 
L 1797 2441 
L 1031 2441 
Q 938 2441 895 2478 
Q 853 2516 853 2572 
Q 853 2631 893 2668 
Q 934 2706 1031 2706 
L 2059 2706 
z
" transform="scale(0.015625)"/>
       </defs>
       <use xlink:href="#CourierNewPSMT-62"/>
       <use xlink:href="#CourierNewPSMT-6c" transform="translate(60.009766 0)"/>
       <use xlink:href="#CourierNewPSMT-61" transform="translate(120.019531 0)"/>
       <use xlink:href="#CourierNewPSMT-63" transform="translate(180.029297 0)"/>
       <use xlink:href="#CourierNewPSMT-6b" transform="translate(240.039062 0)"/>
       <use xlink:href="#CourierNewPSMT-5f" transform="translate(300.048828 0)"/>
       <use xlink:href="#CourierNewPSMT-73" transform="translate(360.058594 0)"/>
       <use xlink:href="#CourierNewPSMT-74" transform="translate(420.068359 0)"/>
       <use xlink:href="#CourierNewPSMT-61" transform="translate(480.078125 0)"/>
       <use xlink:href="#CourierNewPSMT-69" transform="translate(540.087891 0)"/>
       <use xlink:href="#CourierNewPSMT-6e" transform="translate(600.097656 0)"/>
      </g>
     </g>
    </g>
    <g id="xtick_3">
     <g id="line2d_3">
      <g>
       <use xlink:href="#m69e4b2aa1f" x="278.590174" y="278.960082" style="stroke: #000000; stroke-width: 0.8"/>
      </g>
     </g>
     <g id="text_3">
      <!-- corrosion -->
      <g transform="translate(207.443078 362.508589) rotate(-45) scale(0.18 -0.18)">
       <use xlink:href="#CourierNewPSMT-63"/>
       <use xlink:href="#CourierNewPSMT-6f" transform="translate(60.009766 0)"/>
       <use xlink:href="#CourierNewPSMT-72" transform="translate(120.019531 0)"/>
       <use xlink:href="#CourierNewPSMT-72" transform="translate(180.029297 0)"/>
       <use xlink:href="#CourierNewPSMT-6f" transform="translate(240.039062 0)"/>
       <use xlink:href="#CourierNewPSMT-73" transform="translate(300.048828 0)"/>
       <use xlink:href="#CourierNewPSMT-69" transform="translate(360.058594 0)"/>
       <use xlink:href="#CourierNewPSMT-6f" transform="translate(420.068359 0)"/>
       <use xlink:href="#CourierNewPSMT-6e" transform="translate(480.078125 0)"/>
      </g>
     </g>
    </g>
    <g id="xtick_4">
     <g id="line2d_4">
      <g>
       <use xlink:href="#m69e4b2aa1f" x="349.302604" y="278.960082" style="stroke: #000000; stroke-width: 0.8"/>
      </g>
     </g>
     <g id="text_4">
      <!-- crack -->
      <g transform="translate(308.710477 331.953621) rotate(-45) scale(0.18 -0.18)">
       <use xlink:href="#CourierNewPSMT-63"/>
       <use xlink:href="#CourierNewPSMT-72" transform="translate(60.009766 0)"/>
       <use xlink:href="#CourierNewPSMT-61" transform="translate(120.019531 0)"/>
       <use xlink:href="#CourierNewPSMT-63" transform="translate(180.029297 0)"/>
       <use xlink:href="#CourierNewPSMT-6b" transform="translate(240.039062 0)"/>
      </g>
     </g>
    </g>
    <g id="xtick_5">
     <g id="line2d_5">
      <g>
       <use xlink:href="#m69e4b2aa1f" x="420.015035" y="278.960082" style="stroke: #000000; stroke-width: 0.8"/>
      </g>
     </g>
     <g id="text_5">
      <!-- deformation -->
      <g transform="translate(333.590455 377.786073) rotate(-45) scale(0.18 -0.18)">
       <defs>
        <path id="CourierNewPSMT-65" d="M 3341 1291 
L 666 1291 
Q 734 781 1092 470 
Q 1450 159 1978 159 
Q 2272 159 2594 256 
Q 2916 353 3119 513 
Q 3178 559 3222 559 
Q 3272 559 3309 520 
Q 3347 481 3347 428 
Q 3347 375 3297 325 
Q 3147 169 2764 33 
Q 2381 -103 1978 -103 
Q 1303 -103 851 339 
Q 400 781 400 1409 
Q 400 1981 823 2390 
Q 1247 2800 1872 2800 
Q 2516 2800 2931 2379 
Q 3347 1959 3341 1291 
z
M 3075 1556 
Q 2997 1991 2664 2262 
Q 2331 2534 1872 2534 
Q 1413 2534 1081 2265 
Q 750 1997 669 1556 
L 3075 1556 
z
" transform="scale(0.015625)"/>
        <path id="CourierNewPSMT-66" d="M 1747 2441 
L 1747 263 
L 2900 263 
Q 2994 263 3034 227 
Q 3075 191 3075 131 
Q 3075 75 3034 37 
Q 2994 0 2900 0 
L 847 0 
Q 753 0 712 37 
Q 672 75 672 131 
Q 672 191 712 227 
Q 753 263 847 263 
L 1481 263 
L 1481 2441 
L 913 2441 
Q 819 2441 778 2478 
Q 738 2516 738 2575 
Q 738 2631 778 2668 
Q 819 2706 913 2706 
L 1481 2706 
L 1481 3103 
Q 1481 3434 1750 3678 
Q 2019 3922 2463 3922 
Q 2834 3922 3256 3853 
Q 3416 3828 3448 3793 
Q 3481 3759 3481 3703 
Q 3481 3647 3443 3611 
Q 3406 3575 3344 3575 
Q 3319 3575 3259 3584 
Q 2788 3656 2463 3656 
Q 2119 3656 1933 3487 
Q 1747 3319 1747 3103 
L 1747 2706 
L 2975 2706 
Q 3069 2706 3109 2668 
Q 3150 2631 3150 2572 
Q 3150 2516 3109 2478 
Q 3069 2441 2975 2441 
L 1747 2441 
z
" transform="scale(0.015625)"/>
        <path id="CourierNewPSMT-6d" d="M 725 2706 
L 725 2441 
Q 1059 2800 1397 2800 
Q 1600 2800 1753 2692 
Q 1906 2584 2009 2366 
Q 2184 2584 2364 2692 
Q 2544 2800 2725 2800 
Q 3009 2800 3178 2616 
Q 3400 2378 3400 2097 
L 3400 263 
L 3622 263 
Q 3716 263 3756 227 
Q 3797 191 3797 131 
Q 3797 75 3756 37 
Q 3716 0 3622 0 
L 3138 0 
L 3138 2072 
Q 3138 2272 3016 2403 
Q 2894 2534 2734 2534 
Q 2591 2534 2431 2426 
Q 2272 2319 2069 2003 
L 2069 263 
L 2288 263 
Q 2381 263 2422 227 
Q 2463 191 2463 131 
Q 2463 75 2422 37 
Q 2381 0 2288 0 
L 1803 0 
L 1803 2053 
Q 1803 2263 1679 2398 
Q 1556 2534 1403 2534 
Q 1263 2534 1125 2444 
Q 934 2316 725 2003 
L 725 263 
L 947 263 
Q 1041 263 1081 227 
Q 1122 191 1122 131 
Q 1122 75 1081 37 
Q 1041 0 947 0 
L 241 0 
Q 147 0 106 37 
Q 66 75 66 131 
Q 66 191 106 227 
Q 147 263 241 263 
L 463 263 
L 463 2441 
L 241 2441 
Q 147 2441 106 2478 
Q 66 2516 66 2575 
Q 66 2631 106 2668 
Q 147 2706 241 2706 
L 725 2706 
z
" transform="scale(0.015625)"/>
       </defs>
       <use xlink:href="#CourierNewPSMT-64"/>
       <use xlink:href="#CourierNewPSMT-65" transform="translate(60.009766 0)"/>
       <use xlink:href="#CourierNewPSMT-66" transform="translate(120.019531 0)"/>
       <use xlink:href="#CourierNewPSMT-6f" transform="translate(180.029297 0)"/>
       <use xlink:href="#CourierNewPSMT-72" transform="translate(240.039062 0)"/>
       <use xlink:href="#CourierNewPSMT-6d" transform="translate(300.048828 0)"/>
       <use xlink:href="#CourierNewPSMT-61" transform="translate(360.058594 0)"/>
       <use xlink:href="#CourierNewPSMT-74" transform="translate(420.068359 0)"/>
       <use xlink:href="#CourierNewPSMT-69" transform="translate(480.078125 0)"/>
       <use xlink:href="#CourierNewPSMT-6f" transform="translate(540.087891 0)"/>
       <use xlink:href="#CourierNewPSMT-6e" transform="translate(600.097656 0)"/>
      </g>
     </g>
    </g>
    <g id="xtick_6">
     <g id="line2d_6">
      <g>
       <use xlink:href="#m69e4b2aa1f" x="490.727465" y="278.960082" style="stroke: #000000; stroke-width: 0.8"/>
      </g>
     </g>
     <g id="text_6">
      <!-- missing_part -->
      <g transform="translate(395.576304 385.68534) rotate(-45) scale(0.18 -0.18)">
       <defs>
        <path id="CourierNewPSMT-70" d="M 931 2706 
L 931 2228 
Q 1166 2513 1434 2656 
Q 1703 2800 2069 2800 
Q 2456 2800 2784 2619 
Q 3113 2438 3292 2114 
Q 3472 1791 3472 1434 
Q 3472 869 3067 467 
Q 2663 66 2072 66 
Q 1369 66 931 638 
L 931 -944 
L 1569 -944 
Q 1663 -944 1703 -980 
Q 1744 -1016 1744 -1075 
Q 1744 -1131 1703 -1168 
Q 1663 -1206 1569 -1206 
L 316 -1206 
Q 222 -1206 181 -1170 
Q 141 -1134 141 -1075 
Q 141 -1016 181 -980 
Q 222 -944 316 -944 
L 669 -944 
L 669 2441 
L 316 2441 
Q 222 2441 181 2478 
Q 141 2516 141 2575 
Q 141 2631 181 2668 
Q 222 2706 316 2706 
L 931 2706 
z
M 3206 1434 
Q 3206 1888 2876 2211 
Q 2547 2534 2072 2534 
Q 1594 2534 1262 2209 
Q 931 1884 931 1434 
Q 931 981 1262 656 
Q 1594 331 2072 331 
Q 2544 331 2875 654 
Q 3206 978 3206 1434 
z
" transform="scale(0.015625)"/>
       </defs>
       <use xlink:href="#CourierNewPSMT-6d"/>
       <use xlink:href="#CourierNewPSMT-69" transform="translate(60.009766 0)"/>
       <use xlink:href="#CourierNewPSMT-73" transform="translate(120.019531 0)"/>
       <use xlink:href="#CourierNewPSMT-73" transform="translate(180.029297 0)"/>
       <use xlink:href="#CourierNewPSMT-69" transform="translate(240.039062 0)"/>
       <use xlink:href="#CourierNewPSMT-6e" transform="translate(300.048828 0)"/>
       <use xlink:href="#CourierNewPSMT-67" transform="translate(360.058594 0)"/>
       <use xlink:href="#CourierNewPSMT-5f" transform="translate(420.068359 0)"/>
       <use xlink:href="#CourierNewPSMT-70" transform="translate(480.078125 0)"/>
       <use xlink:href="#CourierNewPSMT-61" transform="translate(540.087891 0)"/>
       <use xlink:href="#CourierNewPSMT-72" transform="translate(600.097656 0)"/>
       <use xlink:href="#CourierNewPSMT-74" transform="translate(660.107422 0)"/>
      </g>
     </g>
    </g>
    <g id="xtick_7">
     <g id="line2d_7">
      <g>
       <use xlink:href="#m69e4b2aa1f" x="561.439896" y="278.960082" style="stroke: #000000; stroke-width: 0.8"/>
      </g>
     </g>
     <g id="text_7">
      <!-- ok -->
      <g transform="translate(543.763994 309.037395) rotate(-45) scale(0.18 -0.18)">
       <use xlink:href="#CourierNewPSMT-6f"/>
       <use xlink:href="#CourierNewPSMT-6b" transform="translate(60.009766 0)"/>
      </g>
     </g>
    </g>
    <g id="xtick_8">
     <g id="line2d_8">
      <g>
       <use xlink:href="#m69e4b2aa1f" x="632.152326" y="278.960082" style="stroke: #000000; stroke-width: 0.8"/>
      </g>
     </g>
     <g id="text_8">
      <!-- other -->
      <g transform="translate(591.560198 331.953621) rotate(-45) scale(0.18 -0.18)">
       <defs>
        <path id="CourierNewPSMT-68" d="M 1056 3922 
L 1056 2306 
Q 1306 2578 1536 2689 
Q 1766 2800 2050 2800 
Q 2356 2800 2570 2692 
Q 2784 2584 2928 2361 
Q 3072 2138 3072 1891 
L 3072 263 
L 3366 263 
Q 3463 263 3502 227 
Q 3541 191 3541 131 
Q 3541 75 3502 37 
Q 3463 0 3366 0 
L 2513 0 
Q 2416 0 2375 37 
Q 2334 75 2334 131 
Q 2334 191 2375 227 
Q 2416 263 2513 263 
L 2806 263 
L 2806 1872 
Q 2806 2156 2601 2347 
Q 2397 2538 2031 2538 
Q 1744 2538 1541 2397 
Q 1394 2297 1056 1925 
L 1056 263 
L 1353 263 
Q 1447 263 1487 227 
Q 1528 191 1528 131 
Q 1528 75 1487 37 
Q 1447 0 1353 0 
L 497 0 
Q 403 0 362 37 
Q 322 75 322 131 
Q 322 191 362 227 
Q 403 263 497 263 
L 794 263 
L 794 3656 
L 441 3656 
Q 347 3656 306 3693 
Q 266 3731 266 3791 
Q 266 3847 306 3884 
Q 347 3922 441 3922 
L 1056 3922 
z
" transform="scale(0.015625)"/>
       </defs>
       <use xlink:href="#CourierNewPSMT-6f"/>
       <use xlink:href="#CourierNewPSMT-74" transform="translate(60.009766 0)"/>
       <use xlink:href="#CourierNewPSMT-68" transform="translate(120.019531 0)"/>
       <use xlink:href="#CourierNewPSMT-65" transform="translate(180.029297 0)"/>
       <use xlink:href="#CourierNewPSMT-72" transform="translate(240.039062 0)"/>
      </g>
     </g>
    </g>
    <g id="xtick_9">
     <g id="line2d_9">
      <g>
       <use xlink:href="#m69e4b2aa1f" x="702.864756" y="278.960082" style="stroke: #000000; stroke-width: 0.8"/>
      </g>
     </g>
     <g id="text_9">
      <!-- silicate_stain -->
      <g transform="translate(592.436111 400.962824) rotate(-45) scale(0.18 -0.18)">
       <use xlink:href="#CourierNewPSMT-73"/>
       <use xlink:href="#CourierNewPSMT-69" transform="translate(60.009766 0)"/>
       <use xlink:href="#CourierNewPSMT-6c" transform="translate(120.019531 0)"/>
       <use xlink:href="#CourierNewPSMT-69" transform="translate(180.029297 0)"/>
       <use xlink:href="#CourierNewPSMT-63" transform="translate(240.039062 0)"/>
       <use xlink:href="#CourierNewPSMT-61" transform="translate(300.048828 0)"/>
       <use xlink:href="#CourierNewPSMT-74" transform="translate(360.058594 0)"/>
       <use xlink:href="#CourierNewPSMT-65" transform="translate(420.068359 0)"/>
       <use xlink:href="#CourierNewPSMT-5f" transform="translate(480.078125 0)"/>
       <use xlink:href="#CourierNewPSMT-73" transform="translate(540.087891 0)"/>
       <use xlink:href="#CourierNewPSMT-74" transform="translate(600.097656 0)"/>
       <use xlink:href="#CourierNewPSMT-61" transform="translate(660.107422 0)"/>
       <use xlink:href="#CourierNewPSMT-69" transform="translate(720.117188 0)"/>
       <use xlink:href="#CourierNewPSMT-6e" transform="translate(780.126953 0)"/>
      </g>
     </g>
    </g>
    <g id="xtick_10">
     <g id="line2d_10">
      <g>
       <use xlink:href="#m69e4b2aa1f" x="773.577187" y="278.960082" style="stroke: #000000; stroke-width: 0.8"/>
      </g>
     </g>
     <g id="text_10">
      <!-- water_stain -->
      <g transform="translate(686.064768 378.046598) rotate(-45) scale(0.18 -0.18)">
       <defs>
        <path id="CourierNewPSMT-77" d="M 2825 0 
L 2500 -3 
L 1922 1684 
L 1347 -3 
L 1022 0 
L 478 2441 
L 350 2441 
Q 256 2441 215 2478 
Q 175 2516 175 2575 
Q 175 2631 215 2668 
Q 256 2706 350 2706 
L 1072 2706 
Q 1166 2706 1206 2668 
Q 1247 2631 1247 2572 
Q 1247 2516 1206 2478 
Q 1166 2441 1072 2441 
L 738 2441 
L 1203 359 
L 1763 2022 
L 2075 2022 
L 2650 359 
L 3097 2441 
L 2766 2441 
Q 2672 2441 2630 2478 
Q 2588 2516 2588 2575 
Q 2588 2631 2628 2668 
Q 2669 2706 2766 2706 
L 3484 2706 
Q 3581 2706 3622 2668 
Q 3663 2631 3663 2572 
Q 3663 2516 3622 2478 
Q 3581 2441 3484 2441 
L 3359 2441 
L 2825 0 
z
" transform="scale(0.015625)"/>
       </defs>
       <use xlink:href="#CourierNewPSMT-77"/>
       <use xlink:href="#CourierNewPSMT-61" transform="translate(60.009766 0)"/>
       <use xlink:href="#CourierNewPSMT-74" transform="translate(120.019531 0)"/>
       <use xlink:href="#CourierNewPSMT-65" transform="translate(180.029297 0)"/>
       <use xlink:href="#CourierNewPSMT-72" transform="translate(240.039062 0)"/>
       <use xlink:href="#CourierNewPSMT-5f" transform="translate(300.048828 0)"/>
       <use xlink:href="#CourierNewPSMT-73" transform="translate(360.058594 0)"/>
       <use xlink:href="#CourierNewPSMT-74" transform="translate(420.068359 0)"/>
       <use xlink:href="#CourierNewPSMT-61" transform="translate(480.078125 0)"/>
       <use xlink:href="#CourierNewPSMT-69" transform="translate(540.087891 0)"/>
       <use xlink:href="#CourierNewPSMT-6e" transform="translate(600.097656 0)"/>
      </g>
     </g>
    </g>
   </g>
   <g id="matplotlib.axis_2">
    <g id="ytick_1">
     <g id="line2d_11">
      <path d="M 74.23125 278.960082 
L 836.51125 278.960082 
" clip-path="url(#p975900e5b4)" style="fill: none; stroke-dasharray: 2.96,1.28; stroke-dashoffset: 0; stroke: #b0b0b0; stroke-opacity: 0.7; stroke-width: 0.8"/>
     </g>
     <g id="line2d_12">
      <defs>
       <path id="m56e82c21a3" d="M 0 0 
L -3.5 0 
" style="stroke: #000000; stroke-width: 0.8"/>
      </defs>
      <g>
       <use xlink:href="#m56e82c21a3" x="74.23125" y="278.960082" style="stroke: #000000; stroke-width: 0.8"/>
      </g>
     </g>
     <g id="text_11">
      <!-- 0 -->
      <g transform="translate(56.428438 284.475394) scale(0.18 -0.18)">
       <defs>
        <path id="CourierNewPSMT-30" d="M 3125 2284 
L 3125 1634 
Q 3125 788 2722 294 
Q 2406 -94 1925 -94 
Q 1694 -94 1489 -1 
Q 1284 91 1141 256 
Q 1050 359 942 587 
Q 834 816 788 1006 
Q 716 1275 716 1634 
L 716 2284 
Q 716 3134 1119 3628 
Q 1434 4016 1916 4016 
Q 2150 4016 2353 3923 
Q 2556 3831 2700 3666 
Q 2794 3559 2900 3331 
Q 3006 3103 3056 2916 
Q 3125 2647 3125 2284 
z
M 2863 2250 
Q 2863 2622 2758 2942 
Q 2653 3263 2522 3453 
Q 2444 3563 2319 3641 
Q 2141 3750 1919 3750 
Q 1478 3750 1228 3300 
Q 978 2850 978 2250 
L 978 1672 
Q 978 1300 1083 978 
Q 1188 656 1322 466 
Q 1397 359 1522 281 
Q 1700 169 1925 169 
Q 2363 169 2613 620 
Q 2863 1072 2863 1672 
L 2863 2250 
z
" transform="scale(0.015625)"/>
       </defs>
       <use xlink:href="#CourierNewPSMT-30"/>
      </g>
     </g>
    </g>
    <g id="ytick_2">
     <g id="line2d_13">
      <path d="M 74.23125 218.568952 
L 836.51125 218.568952 
" clip-path="url(#p975900e5b4)" style="fill: none; stroke-dasharray: 2.96,1.28; stroke-dashoffset: 0; stroke: #b0b0b0; stroke-opacity: 0.7; stroke-width: 0.8"/>
     </g>
     <g id="line2d_14">
      <g>
       <use xlink:href="#m56e82c21a3" x="74.23125" y="218.568952" style="stroke: #000000; stroke-width: 0.8"/>
      </g>
     </g>
     <g id="text_12">
      <!-- 500 -->
      <g transform="translate(34.822813 224.084265) scale(0.18 -0.18)">
       <defs>
        <path id="CourierNewPSMT-35" d="M 1197 3656 
L 1197 2372 
Q 1428 2469 1640 2517 
Q 1853 2566 2044 2566 
Q 2538 2566 2870 2219 
Q 3203 1872 3203 1306 
Q 3203 681 2828 293 
Q 2453 -94 1891 -94 
Q 1519 -94 1175 72 
Q 931 188 731 359 
Q 613 463 613 531 
Q 613 588 650 627 
Q 688 666 738 666 
Q 791 666 850 609 
Q 1322 169 1878 169 
Q 2338 169 2638 483 
Q 2938 797 2938 1319 
Q 2938 1763 2678 2033 
Q 2419 2303 2019 2303 
Q 1609 2303 1200 2088 
Q 1100 2038 1059 2038 
Q 1003 2038 968 2075 
Q 934 2113 934 2181 
L 934 3922 
L 2766 3922 
Q 2859 3922 2900 3884 
Q 2941 3847 2941 3788 
Q 2941 3731 2900 3693 
Q 2859 3656 2766 3656 
L 1197 3656 
z
" transform="scale(0.015625)"/>
       </defs>
       <use xlink:href="#CourierNewPSMT-35"/>
       <use xlink:href="#CourierNewPSMT-30" transform="translate(60.009766 0)"/>
       <use xlink:href="#CourierNewPSMT-30" transform="translate(120.019531 0)"/>
      </g>
     </g>
    </g>
    <g id="ytick_3">
     <g id="line2d_15">
      <path d="M 74.23125 158.177823 
L 836.51125 158.177823 
" clip-path="url(#p975900e5b4)" style="fill: none; stroke-dasharray: 2.96,1.28; stroke-dashoffset: 0; stroke: #b0b0b0; stroke-opacity: 0.7; stroke-width: 0.8"/>
     </g>
     <g id="line2d_16">
      <g>
       <use xlink:href="#m56e82c21a3" x="74.23125" y="158.177823" style="stroke: #000000; stroke-width: 0.8"/>
      </g>
     </g>
     <g id="text_13">
      <!-- 1000 -->
      <g transform="translate(24.02 163.693136) scale(0.18 -0.18)">
       <defs>
        <path id="CourierNewPSMT-31" d="M 2050 3975 
L 2050 263 
L 2950 263 
Q 3044 263 3084 227 
Q 3125 191 3125 131 
Q 3125 75 3084 37 
Q 3044 0 2950 0 
L 888 0 
Q 794 0 753 37 
Q 713 75 713 131 
Q 713 191 753 227 
Q 794 263 888 263 
L 1788 263 
L 1788 3613 
L 931 3344 
Q 869 3325 841 3325 
Q 794 3325 755 3364 
Q 716 3403 716 3456 
Q 716 3503 747 3544 
Q 772 3569 850 3597 
L 2050 3975 
z
" transform="scale(0.015625)"/>
       </defs>
       <use xlink:href="#CourierNewPSMT-31"/>
       <use xlink:href="#CourierNewPSMT-30" transform="translate(60.009766 0)"/>
       <use xlink:href="#CourierNewPSMT-30" transform="translate(120.019531 0)"/>
       <use xlink:href="#CourierNewPSMT-30" transform="translate(180.029297 0)"/>
      </g>
     </g>
    </g>
    <g id="ytick_4">
     <g id="line2d_17">
      <path d="M 74.23125 97.786694 
L 836.51125 97.786694 
" clip-path="url(#p975900e5b4)" style="fill: none; stroke-dasharray: 2.96,1.28; stroke-dashoffset: 0; stroke: #b0b0b0; stroke-opacity: 0.7; stroke-width: 0.8"/>
     </g>
     <g id="line2d_18">
      <g>
       <use xlink:href="#m56e82c21a3" x="74.23125" y="97.786694" style="stroke: #000000; stroke-width: 0.8"/>
      </g>
     </g>
     <g id="text_14">
      <!-- 1500 -->
      <g transform="translate(24.02 103.302006) scale(0.18 -0.18)">
       <use xlink:href="#CourierNewPSMT-31"/>
       <use xlink:href="#CourierNewPSMT-35" transform="translate(60.009766 0)"/>
       <use xlink:href="#CourierNewPSMT-30" transform="translate(120.019531 0)"/>
       <use xlink:href="#CourierNewPSMT-30" transform="translate(180.029297 0)"/>
      </g>
     </g>
    </g>
    <g id="ytick_5">
     <g id="line2d_19">
      <path d="M 74.23125 37.395565 
L 836.51125 37.395565 
" clip-path="url(#p975900e5b4)" style="fill: none; stroke-dasharray: 2.96,1.28; stroke-dashoffset: 0; stroke: #b0b0b0; stroke-opacity: 0.7; stroke-width: 0.8"/>
     </g>
     <g id="line2d_20">
      <g>
       <use xlink:href="#m56e82c21a3" x="74.23125" y="37.395565" style="stroke: #000000; stroke-width: 0.8"/>
      </g>
     </g>
     <g id="text_15">
      <!-- 2000 -->
      <g transform="translate(24.02 42.910877) scale(0.18 -0.18)">
       <defs>
        <path id="CourierNewPSMT-32" d="M 791 263 
L 2806 263 
L 2806 366 
Q 2806 459 2843 500 
Q 2881 541 2941 541 
Q 2997 541 3034 500 
Q 3072 459 3072 366 
L 3072 0 
L 534 0 
L 534 388 
Q 1334 1106 2091 1850 
Q 2444 2197 2575 2359 
Q 2706 2522 2754 2645 
Q 2803 2769 2803 2894 
Q 2803 3231 2531 3490 
Q 2259 3750 1875 3750 
Q 1531 3750 1265 3553 
Q 1000 3356 922 3066 
Q 903 2991 875 2969 
Q 838 2938 788 2938 
Q 734 2938 698 2973 
Q 663 3009 663 3059 
Q 663 3209 827 3465 
Q 991 3722 1280 3869 
Q 1569 4016 1872 4016 
Q 2363 4016 2716 3675 
Q 3069 3334 3069 2903 
Q 3069 2722 3009 2570 
Q 2950 2419 2808 2239 
Q 2666 2059 2297 1697 
Q 1372 784 791 281 
L 791 263 
z
" transform="scale(0.015625)"/>
       </defs>
       <use xlink:href="#CourierNewPSMT-32"/>
       <use xlink:href="#CourierNewPSMT-30" transform="translate(60.009766 0)"/>
       <use xlink:href="#CourierNewPSMT-30" transform="translate(120.019531 0)"/>
       <use xlink:href="#CourierNewPSMT-30" transform="translate(180.029297 0)"/>
      </g>
     </g>
    </g>
    <g id="text_16">
     <!-- Anz. Bilder -->
     <g transform="translate(17.005 195.893791) rotate(-90) scale(0.16 -0.16)">
      <defs>
       <path id="CourierNewPSMT-41" d="M 2784 1222 
L 1059 1222 
L 706 263 
L 1209 263 
Q 1303 263 1343 227 
Q 1384 191 1384 131 
Q 1384 75 1343 37 
Q 1303 0 1209 0 
L 228 0 
Q 134 0 93 37 
Q 53 75 53 131 
Q 53 191 93 227 
Q 134 263 228 263 
L 431 263 
L 1591 3394 
L 816 3394 
Q 722 3394 681 3430 
Q 641 3466 641 3525 
Q 641 3584 681 3620 
Q 722 3656 816 3656 
L 2138 3656 
L 3419 263 
L 3622 263 
Q 3716 263 3756 227 
Q 3797 191 3797 131 
Q 3797 75 3756 37 
Q 3716 0 3622 0 
L 2644 0 
Q 2547 0 2506 37 
Q 2466 75 2466 131 
Q 2466 191 2506 227 
Q 2547 263 2644 263 
L 3144 263 
L 2784 1222 
z
M 2684 1484 
L 1959 3394 
L 1863 3394 
L 1159 1484 
L 2684 1484 
z
" transform="scale(0.015625)"/>
       <path id="CourierNewPSMT-7a" d="M 3069 2706 
L 3069 2472 
L 1103 263 
L 2878 263 
L 2878 625 
Q 2878 719 2914 759 
Q 2950 800 3009 800 
Q 3069 800 3106 759 
Q 3144 719 3144 625 
L 3141 0 
L 741 0 
L 741 234 
L 2697 2441 
L 1066 2441 
L 1066 2084 
Q 1066 1991 1028 1950 
Q 991 1909 934 1909 
Q 875 1909 837 1950 
Q 800 1991 800 2084 
L 800 2706 
L 3069 2706 
z
" transform="scale(0.015625)"/>
       <path id="CourierNewPSMT-2e" d="M 1866 753 
L 1978 753 
Q 2153 753 2278 629 
Q 2403 506 2403 331 
Q 2403 150 2276 28 
Q 2150 -94 1978 -94 
L 1866 -94 
Q 1691 -94 1566 29 
Q 1441 153 1441 328 
Q 1441 509 1567 631 
Q 1694 753 1866 753 
z
" transform="scale(0.015625)"/>
       <path id="CourierNewPSMT-20" transform="scale(0.015625)"/>
       <path id="CourierNewPSMT-42" d="M 800 263 
L 800 3394 
L 447 3394 
Q 353 3394 312 3430 
Q 272 3466 272 3525 
Q 272 3584 312 3620 
Q 353 3656 447 3656 
L 2097 3656 
Q 2588 3656 2895 3373 
Q 3203 3091 3203 2709 
Q 3203 2228 2688 1931 
Q 3097 1784 3287 1540 
Q 3478 1297 3478 1003 
Q 3478 741 3353 523 
Q 3228 306 2970 153 
Q 2713 0 2409 0 
L 447 0 
Q 353 0 312 37 
Q 272 75 272 131 
Q 272 191 312 227 
Q 353 263 447 263 
L 800 263 
z
M 1063 2031 
L 1991 2031 
Q 2288 2031 2534 2141 
Q 2725 2228 2831 2393 
Q 2938 2559 2938 2731 
Q 2938 2978 2706 3186 
Q 2475 3394 2103 3394 
L 1063 3394 
L 1063 2031 
z
M 1063 263 
L 2391 263 
Q 2644 263 2831 375 
Q 3019 488 3116 653 
Q 3213 819 3213 997 
Q 3213 1197 3073 1384 
Q 2934 1572 2687 1669 
Q 2441 1766 2006 1766 
L 1063 1766 
L 1063 263 
z
" transform="scale(0.015625)"/>
      </defs>
      <use xlink:href="#CourierNewPSMT-41"/>
      <use xlink:href="#CourierNewPSMT-6e" transform="translate(60.009766 0)"/>
      <use xlink:href="#CourierNewPSMT-7a" transform="translate(120.019531 0)"/>
      <use xlink:href="#CourierNewPSMT-2e" transform="translate(180.029297 0)"/>
      <use xlink:href="#CourierNewPSMT-20" transform="translate(240.039062 0)"/>
      <use xlink:href="#CourierNewPSMT-42" transform="translate(300.048828 0)"/>
      <use xlink:href="#CourierNewPSMT-69" transform="translate(360.058594 0)"/>
      <use xlink:href="#CourierNewPSMT-6c" transform="translate(420.068359 0)"/>
      <use xlink:href="#CourierNewPSMT-64" transform="translate(480.078125 0)"/>
      <use xlink:href="#CourierNewPSMT-65" transform="translate(540.087891 0)"/>
      <use xlink:href="#CourierNewPSMT-72" transform="translate(600.097656 0)"/>
     </g>
    </g>
   </g>
   <g id="patch_23">
    <path d="M 74.23125 278.960082 
L 74.23125 7.2 
" style="fill: none; stroke: #000000; stroke-width: 0.8; stroke-linejoin: miter; stroke-linecap: square"/>
   </g>
   <g id="patch_24">
    <path d="M 836.51125 278.960082 
L 836.51125 7.2 
" style="fill: none; stroke: #000000; stroke-width: 0.8; stroke-linejoin: miter; stroke-linecap: square"/>
   </g>
   <g id="patch_25">
    <path d="M 74.23125 278.960082 
L 836.51125 278.960082 
" style="fill: none; stroke: #000000; stroke-width: 0.8; stroke-linejoin: miter; stroke-linecap: square"/>
   </g>
   <g id="patch_26">
    <path d="M 74.23125 7.2 
L 836.51125 7.2 
" style="fill: none; stroke: #000000; stroke-width: 0.8; stroke-linejoin: miter; stroke-linecap: square"/>
   </g>
   <g id="text_17">
    <!-- 351 -->
    <g transform="translate(104.822192 233.550509) scale(0.16 -0.16)">
     <defs>
      <path id="CourierNewPSMT-33" d="M 2459 2134 
Q 2822 1972 3012 1689 
Q 3203 1406 3203 1100 
Q 3203 628 2820 267 
Q 2438 -94 1863 -94 
Q 1525 -94 1162 50 
Q 800 194 656 344 
Q 609 394 609 450 
Q 609 500 645 537 
Q 681 575 731 575 
Q 781 575 844 528 
Q 1328 169 1869 169 
Q 2325 169 2633 455 
Q 2941 741 2941 1091 
Q 2941 1325 2789 1550 
Q 2638 1775 2353 1904 
Q 2069 2034 1778 2034 
Q 1684 2034 1643 2070 
Q 1603 2106 1603 2166 
Q 1603 2222 1642 2259 
Q 1681 2297 1759 2297 
L 1984 2294 
Q 2338 2294 2567 2509 
Q 2797 2725 2797 3009 
Q 2797 3303 2556 3528 
Q 2316 3753 1928 3753 
Q 1656 3753 1428 3659 
Q 1200 3566 1063 3403 
Q 1013 3341 986 3327 
Q 959 3313 925 3313 
Q 872 3313 834 3348 
Q 797 3384 797 3434 
Q 797 3559 1069 3750 
Q 1447 4016 1928 4016 
Q 2425 4016 2744 3717 
Q 3063 3419 3063 3006 
Q 3063 2744 2909 2509 
Q 2756 2275 2459 2134 
z
" transform="scale(0.015625)"/>
     </defs>
     <use xlink:href="#CourierNewPSMT-33"/>
     <use xlink:href="#CourierNewPSMT-35" transform="translate(60.009766 0)"/>
     <use xlink:href="#CourierNewPSMT-31" transform="translate(120.019531 0)"/>
    </g>
   </g>
   <g id="text_18">
    <!-- 351 -->
    <g transform="translate(140.700935 233.550509) scale(0.16 -0.16)">
     <use xlink:href="#CourierNewPSMT-33"/>
     <use xlink:href="#CourierNewPSMT-35" transform="translate(60.009766 0)"/>
     <use xlink:href="#CourierNewPSMT-31" transform="translate(120.019531 0)"/>
    </g>
   </g>
   <g id="text_19">
    <!-- 28 -->
    <g transform="translate(185.137122 272.563178) scale(0.16 -0.16)">
     <defs>
      <path id="CourierNewPSMT-38" d="M 2459 2034 
Q 2788 1875 2955 1614 
Q 3122 1353 3122 1053 
Q 3122 588 2772 247 
Q 2422 -94 1922 -94 
Q 1422 -94 1072 247 
Q 722 588 722 1053 
Q 722 1350 889 1611 
Q 1056 1872 1388 2034 
Q 1100 2200 969 2378 
Q 788 2631 788 2938 
Q 788 3369 1120 3692 
Q 1453 4016 1922 4016 
Q 2394 4016 2725 3692 
Q 3056 3369 3056 2938 
Q 3056 2631 2875 2381 
Q 2747 2200 2459 2034 
z
M 2788 2928 
Q 2788 3266 2536 3508 
Q 2284 3750 1919 3750 
Q 1556 3750 1304 3506 
Q 1053 3263 1053 2931 
Q 1053 2625 1301 2395 
Q 1550 2166 1919 2166 
Q 2291 2166 2539 2395 
Q 2788 2625 2788 2928 
z
M 2859 1047 
Q 2859 1394 2590 1650 
Q 2322 1906 1922 1906 
Q 1522 1906 1253 1650 
Q 984 1394 984 1050 
Q 984 694 1254 431 
Q 1525 169 1922 169 
Q 2319 169 2589 431 
Q 2859 694 2859 1047 
z
" transform="scale(0.015625)"/>
     </defs>
     <use xlink:href="#CourierNewPSMT-32"/>
     <use xlink:href="#CourierNewPSMT-38" transform="translate(60.009766 0)"/>
    </g>
   </g>
   <g id="text_20">
    <!-- 193 -->
    <g transform="translate(211.413365 252.634106) scale(0.16 -0.16)">
     <defs>
      <path id="CourierNewPSMT-39" d="M 2997 2219 
Q 2794 1859 2514 1678 
Q 2234 1497 1941 1497 
Q 1669 1497 1414 1653 
Q 1159 1809 1009 2111 
Q 859 2413 859 2744 
Q 859 3225 1157 3620 
Q 1456 4016 1956 4016 
Q 2313 4016 2606 3794 
Q 2900 3572 3063 3150 
Q 3272 2609 3272 1894 
Q 3272 1338 3094 969 
Q 2975 719 2745 484 
Q 2516 250 2228 103 
Q 1834 -94 1409 -94 
Q 1128 -94 950 13 
Q 869 63 869 138 
Q 869 191 906 227 
Q 944 263 997 263 
Q 1034 263 1106 228 
Q 1228 169 1388 169 
Q 2053 169 2531 648 
Q 3009 1128 3009 1850 
Q 3009 1981 2997 2219 
z
M 2947 2656 
Q 2781 3291 2536 3520 
Q 2291 3750 1963 3750 
Q 1628 3750 1375 3469 
Q 1122 3188 1122 2747 
Q 1122 2319 1375 2039 
Q 1628 1759 1947 1759 
Q 2131 1759 2311 1859 
Q 2491 1959 2650 2159 
Q 2753 2294 2947 2656 
z
" transform="scale(0.015625)"/>
     </defs>
     <use xlink:href="#CourierNewPSMT-31"/>
     <use xlink:href="#CourierNewPSMT-39" transform="translate(60.009766 0)"/>
     <use xlink:href="#CourierNewPSMT-33" transform="translate(120.019531 0)"/>
    </g>
   </g>
   <g id="text_21">
    <!-- 546 -->
    <g transform="translate(246.247052 209.997969) scale(0.16 -0.16)">
     <defs>
      <path id="CourierNewPSMT-34" d="M 2409 1097 
L 669 1097 
L 669 1400 
L 2128 3922 
L 2675 3922 
L 2675 1359 
L 2894 1359 
Q 2991 1359 3031 1323 
Q 3072 1288 3072 1228 
Q 3072 1172 3031 1134 
Q 2991 1097 2894 1097 
L 2675 1097 
L 2675 263 
L 2894 263 
Q 2991 263 3031 227 
Q 3072 191 3072 131 
Q 3072 75 3031 37 
Q 2991 0 2894 0 
L 1919 0 
Q 1822 0 1781 37 
Q 1741 75 1741 131 
Q 1741 191 1781 227 
Q 1822 263 1919 263 
L 2409 263 
L 2409 1097 
z
M 2409 1359 
L 2409 3656 
L 2272 3656 
L 944 1359 
L 2409 1359 
z
" transform="scale(0.015625)"/>
      <path id="CourierNewPSMT-36" d="M 1138 1659 
Q 1381 2019 1639 2191 
Q 1897 2363 2213 2363 
Q 2631 2363 2956 2014 
Q 3281 1666 3281 1153 
Q 3281 684 2984 295 
Q 2688 -94 2166 -94 
Q 1825 -94 1529 115 
Q 1234 325 1066 759 
Q 856 1300 856 1956 
Q 856 2450 1053 2875 
Q 1203 3203 1453 3451 
Q 1703 3700 2036 3858 
Q 2369 4016 2756 4016 
Q 3019 4016 3194 3909 
Q 3269 3863 3269 3784 
Q 3269 3728 3234 3692 
Q 3200 3656 3147 3656 
Q 3106 3656 3050 3688 
Q 2922 3750 2731 3750 
Q 2122 3750 1620 3226 
Q 1119 2703 1119 1981 
Q 1119 1878 1138 1659 
z
M 1197 1225 
Q 1316 656 1570 412 
Q 1825 169 2172 169 
Q 2522 169 2770 442 
Q 3019 716 3019 1153 
Q 3019 1563 2769 1831 
Q 2519 2100 2203 2100 
Q 1900 2100 1619 1841 
Q 1431 1669 1197 1225 
z
" transform="scale(0.015625)"/>
     </defs>
     <use xlink:href="#CourierNewPSMT-35"/>
     <use xlink:href="#CourierNewPSMT-34" transform="translate(60.009766 0)"/>
     <use xlink:href="#CourierNewPSMT-36" transform="translate(120.019531 0)"/>
    </g>
   </g>
   <g id="text_22">
    <!-- 688 -->
    <g transform="translate(282.125795 192.846888) scale(0.16 -0.16)">
     <use xlink:href="#CourierNewPSMT-36"/>
     <use xlink:href="#CourierNewPSMT-38" transform="translate(60.009766 0)"/>
     <use xlink:href="#CourierNewPSMT-38" transform="translate(120.019531 0)"/>
    </g>
   </g>
   <g id="text_23">
    <!-- 264 -->
    <g transform="translate(316.959483 244.058565) scale(0.16 -0.16)">
     <use xlink:href="#CourierNewPSMT-32"/>
     <use xlink:href="#CourierNewPSMT-36" transform="translate(60.009766 0)"/>
     <use xlink:href="#CourierNewPSMT-34" transform="translate(120.019531 0)"/>
    </g>
   </g>
   <g id="text_24">
    <!-- 299 -->
    <g transform="translate(352.838226 239.831186) scale(0.16 -0.16)">
     <use xlink:href="#CourierNewPSMT-32"/>
     <use xlink:href="#CourierNewPSMT-39" transform="translate(60.009766 0)"/>
     <use xlink:href="#CourierNewPSMT-39" transform="translate(120.019531 0)"/>
    </g>
   </g>
   <g id="text_25">
    <!-- 1351 -->
    <g transform="translate(378.069413 112.76825) scale(0.16 -0.16)">
     <use xlink:href="#CourierNewPSMT-31"/>
     <use xlink:href="#CourierNewPSMT-33" transform="translate(60.009766 0)"/>
     <use xlink:href="#CourierNewPSMT-35" transform="translate(120.019531 0)"/>
     <use xlink:href="#CourierNewPSMT-31" transform="translate(180.029297 0)"/>
    </g>
   </g>
   <g id="text_26">
    <!-- 1728 -->
    <g transform="translate(423.550656 67.233339) scale(0.16 -0.16)">
     <defs>
      <path id="CourierNewPSMT-37" d="M 2803 3538 
L 2803 3656 
L 922 3656 
L 922 3425 
Q 922 3331 886 3290 
Q 850 3250 791 3250 
Q 734 3250 696 3290 
Q 659 3331 659 3425 
L 659 3922 
L 3069 3922 
L 3069 3503 
L 2013 128 
Q 1988 47 1953 20 
Q 1919 -6 1875 -6 
Q 1819 -6 1781 31 
Q 1744 69 1744 119 
Q 1744 150 1763 206 
L 2803 3538 
z
" transform="scale(0.015625)"/>
     </defs>
     <use xlink:href="#CourierNewPSMT-31"/>
     <use xlink:href="#CourierNewPSMT-37" transform="translate(60.009766 0)"/>
     <use xlink:href="#CourierNewPSMT-32" transform="translate(120.019531 0)"/>
     <use xlink:href="#CourierNewPSMT-38" transform="translate(180.029297 0)"/>
    </g>
   </g>
   <g id="text_27">
    <!-- 296 -->
    <g transform="translate(458.384344 240.193533) scale(0.16 -0.16)">
     <use xlink:href="#CourierNewPSMT-32"/>
     <use xlink:href="#CourierNewPSMT-39" transform="translate(60.009766 0)"/>
     <use xlink:href="#CourierNewPSMT-36" transform="translate(120.019531 0)"/>
    </g>
   </g>
   <g id="text_28">
    <!-- 351 -->
    <g transform="translate(494.263087 233.550509) scale(0.16 -0.16)">
     <use xlink:href="#CourierNewPSMT-33"/>
     <use xlink:href="#CourierNewPSMT-35" transform="translate(60.009766 0)"/>
     <use xlink:href="#CourierNewPSMT-31" transform="translate(120.019531 0)"/>
    </g>
   </g>
   <g id="text_29">
    <!-- 1465 -->
    <g transform="translate(519.494274 98.999073) scale(0.16 -0.16)">
     <use xlink:href="#CourierNewPSMT-31"/>
     <use xlink:href="#CourierNewPSMT-34" transform="translate(60.009766 0)"/>
     <use xlink:href="#CourierNewPSMT-36" transform="translate(120.019531 0)"/>
     <use xlink:href="#CourierNewPSMT-35" transform="translate(180.029297 0)"/>
    </g>
   </g>
   <g id="text_30">
    <!-- 1545 -->
    <g transform="translate(564.975517 89.336492) scale(0.16 -0.16)">
     <use xlink:href="#CourierNewPSMT-31"/>
     <use xlink:href="#CourierNewPSMT-35" transform="translate(60.009766 0)"/>
     <use xlink:href="#CourierNewPSMT-34" transform="translate(120.019531 0)"/>
     <use xlink:href="#CourierNewPSMT-35" transform="translate(180.029297 0)"/>
    </g>
   </g>
   <g id="text_31">
    <!-- 164 -->
    <g transform="translate(599.809205 256.136791) scale(0.16 -0.16)">
     <use xlink:href="#CourierNewPSMT-31"/>
     <use xlink:href="#CourierNewPSMT-36" transform="translate(60.009766 0)"/>
     <use xlink:href="#CourierNewPSMT-34" transform="translate(120.019531 0)"/>
    </g>
   </g>
   <g id="text_32">
    <!-- 188 -->
    <g transform="translate(635.687948 253.238017) scale(0.16 -0.16)">
     <use xlink:href="#CourierNewPSMT-31"/>
     <use xlink:href="#CourierNewPSMT-38" transform="translate(60.009766 0)"/>
     <use xlink:href="#CourierNewPSMT-38" transform="translate(120.019531 0)"/>
    </g>
   </g>
   <g id="text_33">
    <!-- 80 -->
    <g transform="translate(680.124135 266.282501) scale(0.16 -0.16)">
     <use xlink:href="#CourierNewPSMT-38"/>
     <use xlink:href="#CourierNewPSMT-30" transform="translate(60.009766 0)"/>
    </g>
   </g>
   <g id="text_34">
    <!-- 108 -->
    <g transform="translate(706.400378 262.900598) scale(0.16 -0.16)">
     <use xlink:href="#CourierNewPSMT-31"/>
     <use xlink:href="#CourierNewPSMT-30" transform="translate(60.009766 0)"/>
     <use xlink:href="#CourierNewPSMT-38" transform="translate(120.019531 0)"/>
    </g>
   </g>
   <g id="text_35">
    <!-- 327 -->
    <g transform="translate(741.234065 236.449283) scale(0.16 -0.16)">
     <use xlink:href="#CourierNewPSMT-33"/>
     <use xlink:href="#CourierNewPSMT-32" transform="translate(60.009766 0)"/>
     <use xlink:href="#CourierNewPSMT-37" transform="translate(120.019531 0)"/>
    </g>
   </g>
   <g id="text_36">
    <!-- 345 -->
    <g transform="translate(777.112808 234.275203) scale(0.16 -0.16)">
     <use xlink:href="#CourierNewPSMT-33"/>
     <use xlink:href="#CourierNewPSMT-34" transform="translate(60.009766 0)"/>
     <use xlink:href="#CourierNewPSMT-35" transform="translate(120.019531 0)"/>
    </g>
   </g>
  </g>
 </g>
 <defs>
  <clipPath id="p975900e5b4">
   <rect x="74.23125" y="7.2" width="762.28" height="271.760082"/>
  </clipPath>
 </defs>
</svg>
